<?xml version="1.0" standalone="no"?>
<!DOCTYPE svg PUBLIC "-//W3C//DTD SVG 1.1//EN" "http://www.w3.org/Graphics/SVG/1.1/DTD/svg11.dtd" >
<svg>
<metadata>
Created by FontForge 20090622 at Tue Jun 19 23:46:12 2018
 By deploy user
Data copyright &#194;&#169; URW Software &#38; Type GmbH, additional data copyright &#194;&#169; The Monotype Corporation. Copyright &#194;&#169; 1994-2002 Microsoft Corporation. All rights reserved.
</metadata>
<defs>
<font id="Broadway" horiz-adv-x="1324" >
  <font-face 
    font-family="Broadway"
    font-weight="400"
    font-stretch="normal"
    units-per-em="2048"
    panose-1="4 4 9 5 8 11 2 2 5 2"
    ascent="1638"
    descent="-410"
    x-height="1092"
    cap-height="1365"
    bbox="-290 -508 2353 1869"
    underline-thickness="100"
    underline-position="-242"
    unicode-range="U+0020-U+F002"
  />
<missing-glyph horiz-adv-x="512" 
d="M51 0v1365h410v-1365h-410zM410 51v1263h-308v-1263h308z" />
    <glyph glyph-name=".notdef" horiz-adv-x="512" 
d="M51 0v1365h410v-1365h-410zM410 51v1263h-308v-1263h308z" />
    <glyph glyph-name="glyph1" horiz-adv-x="0" 
 />
    <glyph glyph-name="glyph2" horiz-adv-x="512" 
 />
    <glyph glyph-name="space" unicode=" " horiz-adv-x="512" 
 />
    <glyph glyph-name="space" unicode="&#xa0;" horiz-adv-x="512" 
 />
    <glyph glyph-name="exclam" unicode="!" horiz-adv-x="786" 
d="M415 552h-63q-19 102 -43 151t-145 233q-75 113 -75 216q0 116 78 180q89 74 228 74q143 0 230 -83q73 -68 73 -172q0 -58 -19.5 -108.5t-69.5 -125.5q-96 -142 -132 -209t-62 -156zM383 413q134 0 219.5 -63t85.5 -161q0 -99 -79.5 -159.5t-208.5 -60.5
q-134 0 -219 61.5t-85 158.5q0 101 82 163q79 60 205 61z" />
    <glyph glyph-name="quotedbl" unicode="&#x22;" horiz-adv-x="792" 
d="M130 816l-41 549h266l-41 -549h-184zM478 816l-41 549h266l-41 -549h-184z" />
    <glyph glyph-name="numbersign" unicode="#" 
d="M788 1365l-8 -70l-17 -143l-18 -167l-2 -21h224l3 28l17 178l16 173q6 36 38 36q36 0 36 -33q0 -18 -4 -44l-33 -290l-3 -24l-2 -24h168q37 0 50.5 -6.5t13.5 -25.5q0 -40 -71 -40h-169l-3 -31l-4 -32l-14 -137l-13 -123l-6 -60h168q37 0 50.5 -6.5t13.5 -25.5
q0 -40 -71 -40h-169l-20 -212l-18 -176q-4 -42 -10.5 -52.5t-28.5 -10.5q-37 0 -37 34q0 12 6 55l38 339l2 23h-223l-4 -37l-40 -400h-402l9 76l18 149l20 189l3 23h-163q-71 0 -71 40q0 19 13.5 25.5t50.5 6.5h178l3 33l4 34l33 316h-163q-71 0 -71 40q0 19 13.5 25.5
t50.5 6.5h177l3 28l17 172l13 148l6 53h402zM695 509h224l21 193l12 117l4 36l4 37h-225l-4 -42l-5 -42l-28 -264z" />
    <glyph glyph-name="dollar" unicode="$" 
d="M932 1265l-132 -311l21 -23q201 -235 246 -295q107 -145 107 -292q0 -69 -33.5 -137t-91.5 -113q-153 -124 -401 -124q-135 0 -242 35l-35 -82q-16 -38 -23 -46.5t-24 -8.5q-16 0 -27 8.5t-11 20.5q0 9 12 39l9 21l28 70q-198 90 -198 181q0 17 11.5 29t28.5 12
q21 0 46 -35q62 -86 144 -120l142 329q-141 166 -209 257q-136 185 -136 324q0 177 152 288q136 99 353 99q114 0 224 -34l39 94q12 30 31 30q16 0 28.5 -10t12.5 -23q0 -16 -43 -116q156 -79 156 -123q0 -14 -13 -27t-26 -13q-20 0 -76 50q-37 33 -70 46zM870 1295
q-90 26 -154 26q-49 0 -73.5 -17.5t-24.5 -52.5q0 -56 135 -240zM558 366l-126 -297q91 -32 188 -32q50 0 78 18t28 51q0 32 -47.5 105.5t-120.5 154.5z" />
    <glyph glyph-name="percent" unicode="%" horiz-adv-x="1574" 
d="M384 1384q120 0 212 -80q118 -102 118 -294q0 -169 -100 -272q-95 -99 -232 -99q-146 0 -244 114q-90 106 -90 261q0 166 95 265q99 103 241 105zM367 1325v-628h16q106 0 177 63q95 85 95 256q0 139 -70 222q-74 88 -189 88q-9 0 -29 -1zM1083 1192l-525 -1054l-24 -48
q-21 -40 -26 -54q-25 -60 -53 -60q-12 0 -22 9.5t-10 21.5q0 10 29 67l23 47l25 49l555 1114q39 79 48 92t25 13q11 0 20.5 -9.5t9.5 -21.5q0 -15 -75 -166zM1199 724q140 0 237 -102q98 -102 98 -278q0 -180 -118 -284q-91 -79 -210 -79q-72 0 -140 31t-113 84
q-85 100 -85 259q0 166 102 269q97 98 229 100zM1187 666v-625q17 -1 26 -1q109 0 178 73q83 88 83 243q0 139 -71 221q-34 40 -87 65t-103 25q-8 0 -26 -1z" />
    <glyph glyph-name="ampersand" unicode="&#x26;" horiz-adv-x="1563" 
d="M1154 455q158 -227 375 -455h-701q-49 42 -97 94q-143 -117 -318 -117q-86 0 -164 31.5t-125 84.5q-76 88 -76 215q0 115 65.5 205t207.5 169q-67 127 -91.5 198.5t-24.5 139.5q0 157 113 256q141 123 384 123q199 0 308 -93q74 -62 74 -163q0 -160 -212 -266
q55 -100 241 -369q230 228 351 228q51 0 51 -45q0 -23 -12.5 -30t-62.5 -12q-49 -5 -112 -48t-174 -146zM685 144q-94 114 -155 202t-177 279q-131 -78 -184 -148t-53 -164q0 -112 68 -182q38 -41 101 -65t129 -24q146 0 271 102zM834 932q182 84 182 209q0 91 -83.5 141
t-235.5 50q-28 0 -49 -3q39 -153 186 -397z" />
    <glyph glyph-name="quotesingle" unicode="'" horiz-adv-x="444" 
d="M130 816l-41 549h266l-41 -549h-184z" />
    <glyph glyph-name="parenleft" unicode="(" horiz-adv-x="748" 
d="M563 1408q48 0 48 -32q0 -13 -7 -19t-42 -24q-31 -15 -55 -54.5t-31 -86.5q-9 -55 -15.5 -238t-6.5 -357q0 -600 39 -695q28 -67 103 -96q14 -6 14 -25q0 -34 -46 -34q-84 0 -170.5 43.5t-147.5 116.5q-103 123 -129 302q-15 104 -15 415q0 174 8 264t30 164
q54 181 200 282q107 73 223 74z" />
    <glyph glyph-name="parenright" unicode=")" horiz-adv-x="748" 
d="M184 1408q84 0 170.5 -43.5t147.5 -116.5q103 -123 129 -302q15 -104 15 -415q0 -174 -8 -263.5t-30 -164.5q-53 -179 -200 -282q-107 -74 -223 -74q-48 0 -48 32q0 13 7 19t42 24q31 15 55 54.5t31 86.5q9 55 15.5 238t6.5 356q0 601 -39 696q-28 67 -103 96
q-14 6 -14 25q0 34 46 34z" />
    <glyph glyph-name="asterisk" unicode="*" horiz-adv-x="808" 
d="M332 1126l-14 239h178l-14 -239l223 87l55 -169l-231 -61l151 -185l-143 -104l-130 201l-129 -201l-144 104l152 185l-232 61l55 169z" />
    <glyph glyph-name="plus" unicode="+" 
d="M890 645l-1 -60l2 -131l4 -174h-461l4 174l2 133l-1 58l-90 -1h-46l-54 1l-87 -2q-64 0 -64 40t64 40l89 -2l52 1h136l1 59l-2 131l-4 174h461l-4 -174l-2 -133l1 -57h135l72 -1l73 2q56 0 56 -40t-56 -40l-87 2l-58 -1h-45z" />
    <glyph glyph-name="comma" unicode="," horiz-adv-x="771" 
d="M638 97q-49 -64 -121 -96t-168 -32q-104 0 -180 47q-93 57 -93 163q0 84 60 145q94 96 248 96q142 0 228 -80q84 -78 84 -211q0 -85 -36 -157.5t-101 -115.5q-95 -65 -261 -65q-74 0 -74 30q0 25 37 25l32 -2h20q105 0 175 31q90 39 129 134q10 23 21 88z" />
    <glyph glyph-name="hyphen" unicode="-" horiz-adv-x="716" 
d="M501 527l-144 -1l-292 -3q-65 0 -65 36q0 39 63 39l71 -2l179 -4l260 6l78 1q65 0 65 -38q0 -37 -66 -37l-72 2z" />
    <glyph glyph-name="period" unicode="." horiz-adv-x="771" 
d="M386 414q133 0 214 -59t81 -158q0 -101 -82 -164.5t-213 -63.5q-165 0 -247 92q-48 54 -48 126q0 102 80 163.5t215 63.5z" />
    <glyph glyph-name="slash" unicode="/" horiz-adv-x="955" 
d="M847 1407q18 1 31.5 -10.5t13.5 -26.5q0 -11 -22.5 -59.5l-156.5 -330.5l-403 -852l-110 -232q-31 -65 -38 -84q-26 -64 -61 -64q-16 0 -28 11t-12 25q0 15 24 64l39 83l315 662l197 417l92 193q76 165 87 184t32 20z" />
    <glyph glyph-name="zero" unicode="0" 
d="M681 1400q257 0 429 -209q167 -203 167 -519q0 -327 -197 -534q-166 -176 -399 -176q-160 0 -301 81q-168 98 -256 283q-70 147 -70 355q0 335 192 533q85 88 198.5 136.5t236.5 49.5zM661 1333l-5 -650l4 -536l1 -118q187 -2 323 110q110 92 168.5 230.5t58.5 310.5
q0 304 -157 483q-70 80 -163 126t-184 46q-15 0 -46 -2z" />
    <glyph glyph-name="one" unicode="1" 
d="M1000 1387l-8 -571l8 -783v-33h-577v33l8 795l2 294v42l-20 -6l-145 -45q-22 -8 -38 -8q-30 0 -30 34q0 25 15.5 34t90.5 28l251 65l94 25z" />
    <glyph glyph-name="two" unicode="2" 
d="M738 64h37q272 1 390 16q39 7 60 7q32 0 32 -34q0 -38 -35 -48q-16 -5 -60 -5h-1135q178 214 299 374t253 356q145 216 203 322t58 158q0 61 -46 91t-139 30t-190.5 -31t-164.5 -82q-65 -49 -103.5 -118.5t-38.5 -137.5q0 -46 12.5 -78.5t55.5 -94.5q9 -14 9 -28
q0 -15 -12 -26.5t-26 -11.5q-40 0 -75 72.5t-35 153.5q0 112 68 213q77 115 217.5 176.5t325.5 61.5q201 0 345 -70q106 -51 165 -150q48 -81 48 -182q0 -79 -28.5 -159.5t-95.5 -194.5q-118 -199 -275 -415z" />
    <glyph glyph-name="three" unicode="3" 
d="M605 1332q-242 3 -368 -138q-43 -45 -69 -45q-15 0 -26.5 14.5t-11.5 33.5q0 38 81 92q165 111 444 111q209 0 347 -78q76 -42 117 -111.5t41 -153.5q0 -141 -113 -223q-105 -76 -260 -94q-82 -9 -104 -14l165 -23q186 -23 291 -119q90 -82 90 -209q0 -122 -86 -221
q-166 -192 -548 -192q-291 0 -462 115q-113 75 -113 141q0 17 12.5 28.5t29.5 11.5q22 0 33 -11t36 -54q34 -62 117 -100q143 -66 312 -66l45 1v667h-151q-50 0 -62.5 5.5t-12.5 27.5q0 24 12.5 30t63.5 6h150v568z" />
    <glyph glyph-name="four" unicode="4" 
d="M1098 276v-276h-563l3 140l1 112v20h-27l-96 1l-223 -3l-59 -1q-53 0 -73.5 9.5t-20.5 34.5q0 18 19.5 42.5t105.5 116.5l935 1001l-1 -72l-3 -337l-2 -409l3 -310q12 -2 20 -2q5 0 18 4l108 4l29 2q32 0 32 -38q0 -32 -26 -36q-6 -2 -74 -3h-106zM540 341v433l-401 -431
q97 -4 191 -4z" />
    <glyph glyph-name="five" unicode="5" 
d="M617 994q-44 3 -74 3q-181 0 -271 -76q-21 -17 -31 -17t-21.5 12t-11.5 22q0 6 5 18l12 33l18 50q29 76 68 199l42 125l302 -4l132 -1l225 5l43 1q38 0 38 -24q0 -27 -17.5 -45.5t-42.5 -18.5q-18 0 -47 3q-232 12 -570 14h-20l-87 -260q94 30 237 30q169 0 313 -46
q201 -64 297 -209q80 -121 80 -280q0 -156 -81 -287q-172 -280 -544 -280q-254 0 -422 137q-152 124 -152 335q0 135 67 233q33 47 63 47q16 0 29.5 -15t13.5 -32q0 -12 -6.5 -20.5t-43.5 -48.5q-57 -60 -57 -172q0 -123 70 -217q66 -91 204 -144q103 -39 196 -39q10 0 44 3
v966z" />
    <glyph glyph-name="six" unicode="6" 
d="M665 1326l-4 -706l4 -592q29 -2 45 -2q85 0 181.5 39.5t166.5 103.5q153 140 153 343q0 187 -130 276q-79 55 -164 55q-67 0 -130 -34q-35 -19 -45 -19q-26 0 -26 29q0 33 63.5 61t138.5 28q141 0 244 -98q118 -113 118 -300q0 -246 -201 -411q-169 -137 -392 -137
q-214 0 -376 123q-254 191 -254 569q0 298 174 501q107 125 259 190q128 55 262 55q173 0 298 -94q91 -68 91 -125q0 -17 -13 -30t-32 -13q-28 0 -50 42q-44 81 -110 116q-74 40 -188 40q-37 0 -83 -10z" />
    <glyph glyph-name="seven" unicode="7" 
d="M1276 1365l-211 -642l-234 -723h-692l34 71l195 400l397 830h-238q-314 -2 -405 -34q-27 -10 -44 -10q-30 0 -30 57q0 54 43 54l150 -4h99l462 1h474z" />
    <glyph glyph-name="eight" unicode="8" 
d="M1009 845q89 -59 134 -104q115 -114 115 -281q0 -150 -100 -275q-94 -118 -276 -179q-133 -45 -272 -45q-258 0 -424 132q-54 43 -86.5 107t-32.5 128q0 86 47 149.5t150 118.5q-162 158 -162 344q0 203 165 328q174 132 433 132q224 0 357 -97q106 -78 106 -214
q0 -77 -36 -133.5t-118 -110.5zM936 878q81 46 115 93.5t34 114.5q0 116 -97 177q-115 71 -297 71q-130 0 -208.5 -31.5t-78.5 -83.5q0 -66 171 -166q84 -48 261 -128zM312 547q-66 -34 -96 -61q-75 -65 -75 -157q0 -58 30.5 -112.5t82.5 -89.5q147 -101 353 -101
q128 0 216.5 34t88.5 83q0 53 -90 109q-56 35 -276 148q-92 46 -234 147z" />
    <glyph glyph-name="nine" unicode="9" 
d="M660 35l4 707l-4 592q-32 2 -45 2q-86 0 -182 -39.5t-166 -103.5q-153 -141 -153 -344q0 -186 131 -276q79 -55 163 -55q67 0 129 34q35 19 45 19q26 0 26 -29q0 -33 -63.5 -61t-138.5 -28q-139 0 -242 98q-119 114 -119 301q0 246 201 410q169 138 392 138
q213 0 376 -123q254 -192 254 -570q0 -298 -174 -501q-107 -125 -260 -189q-128 -55 -261 -55q-174 0 -299 93q-91 69 -91 125q0 17 13.5 30t31.5 13q28 0 50 -42q44 -81 110 -115q75 -40 188 -40q38 0 84 9z" />
    <glyph glyph-name="colon" unicode=":" horiz-adv-x="771" 
d="M386 414q133 0 214 -59t81 -158q0 -101 -82 -164.5t-213 -63.5q-165 0 -247 92q-48 54 -48 126q0 102 80 163.5t215 63.5zM386 987q133 0 214 -59t81 -158q0 -101 -82 -164.5t-213 -63.5q-165 0 -247 92q-48 54 -48 126q0 102 80 163.5t215 63.5z" />
    <glyph glyph-name="semicolon" unicode=";" horiz-adv-x="771" 
d="M370 987q133 0 214 -59t81 -158q0 -101 -82 -164.5t-213 -63.5q-165 0 -247 92q-48 54 -48 126q0 102 80 163.5t215 63.5zM638 97q-49 -64 -121.5 -96t-168.5 -32q-104 0 -180 47q-93 57 -93 163q0 84 60 145q94 96 248 96q142 0 228 -80q84 -78 84 -211
q0 -85 -36 -157.5t-100 -115.5q-96 -65 -261 -65q-74 0 -74 30q0 25 37 25l32 -2h20q105 0 174 31q90 39 129 134q10 23 22 88z" />
    <glyph glyph-name="less" unicode="&#x3c;" horiz-adv-x="1024" 
d="M949 1329v-167l-424 -259l424 -294v-444l-875 607v21z" />
    <glyph glyph-name="equal" unicode="=" 
d="M663 507l-378 -5h-51l-75 -1q-63 0 -63 39q0 41 63 41l71 -2l427 -4l438 4l71 2q63 0 63 -41q0 -39 -63 -39l-75 1h-51zM663 780l-327 -3l-51 -1l-126 -1q-63 0 -63 38q0 41 63 41l71 -2l427 -4l438 4l71 2q63 0 63 -41q0 -38 -63 -38l-126 1l-51 1z" />
    <glyph glyph-name="greater" unicode="&#x3e;" horiz-adv-x="1024" 
d="M75 165v167l424 259l-424 294v444l875 -607v-21z" />
    <glyph glyph-name="question" unicode="?" horiz-adv-x="1133" 
d="M554 626v-91h-67l3 801q-143 -8 -246 -94q-86 -71 -86 -159q0 -18 4 -38q6 -28 6 -40q0 -14 -12 -24.5t-29 -10.5q-23 0 -38 24t-15 60q0 72 46 144.5t123 123.5q127 84 326 84q256 0 392 -135q103 -103 103 -258q0 -134 -83 -232q-67 -80 -159.5 -113.5t-267.5 -41.5z
M517 413q131 0 213.5 -62t82.5 -161q0 -90 -65 -148q-83 -73 -227 -73q-132 0 -215.5 60.5t-83.5 156.5q0 98 75 159q81 66 220 68z" />
    <glyph glyph-name="at" unicode="@" horiz-adv-x="1516" 
d="M1102 411q71 1 128 41q72 52 112 139.5t40 193.5q0 246 -180 404q-80 70 -190.5 109t-227.5 39q-264 0 -452 -179q-197 -189 -197 -471q0 -270 177 -459q189 -201 508 -201q126 0 229 26.5t238 94.5l22 -47q-243 -123 -490 -123q-338 0 -541 210q-91 94 -142 220
q-55 134 -55 281q0 202 102 369q101 166 283 254q154 75 321 75q174 0 330 -80q162 -83 247 -240q71 -131 71 -279q0 -181 -98.5 -303t-244.5 -122h-318l11 63q-98 -75 -205 -75q-116 0 -194 77t-78 192q0 151 108 254q120 116 271 116q102 0 178 -65l6 50h321l-47 -283z
M856 863q-78 73 -132 73q-22 0 -30 -15.5t-17 -73.5l-55 -348l-3 -20q-5 -37 -5 -44q0 -14 7 -21t20 -7q52 0 157 88z" />
    <glyph glyph-name="A" unicode="A" horiz-adv-x="1599" 
d="M825 1447l800 -1447h-693l-95 183h-336l-296 1l-50 1l-66 -122q-29 -55 -40.5 -68.5t-28.5 -13.5q-34 0 -34 30q0 13 19.5 48.5t136.5 233.5l605 1019zM514 792l-175 -295l-140 -243l300 -4l301 3z" />
    <glyph glyph-name="B" unicode="B" horiz-adv-x="1467" 
d="M1225 594q72 -52 107.5 -113.5t35.5 -132.5q0 -115 -89 -212q-109 -120 -328 -130q-121 -6 -340 -6h-495l1 47l2 194l3 382l-4 416l-2 326h536q201 0 276.5 -6.5t155.5 -31.5q85 -27 159 -79t115 -114q64 -97 64 -217q0 -108 -53 -195t-144 -128zM1144 568q-43 -9 -80 -9
q-79 0 -127.5 26t-48.5 68q0 23 16 23q12 0 33 -10q69 -35 150 -35q147 0 222 116q48 73 48 167q0 143 -111 245q-79 74 -188.5 107t-274.5 33h-55l-6 -600l6 -633l90 -1q149 0 232 16.5t138 56.5q114 84 114 212q0 65 -39.5 119.5t-118.5 98.5z" />
    <glyph glyph-name="C" unicode="C" horiz-adv-x="1446" 
d="M701 1338l-5 -709l5 -602q52 -7 86 -7q98 0 201 35t182 95q51 39 105.5 104t87.5 127q19 36 41 36q33 0 33 -28q0 -30 -49.5 -101.5t-108.5 -128.5q-128 -123 -301 -171q-104 -29 -200 -29q-140 0 -281 60q-226 95 -344 301q-98 171 -98 363q0 196 102 370
q109 185 308 283q145 70 313 70q288 0 498 -195q100 -93 100 -134q0 -11 -10 -20t-22 -9q-20 0 -48 39q-86 119 -227 188.5t-298 69.5q-37 0 -70 -7z" />
    <glyph glyph-name="D" unicode="D" horiz-adv-x="1538" 
d="M116 1365h526q206 0 310 -20q257 -49 415 -274q124 -177 124 -390q0 -217 -128 -395q-154 -215 -402 -267q-64 -13 -114 -16t-220 -3h-508l3 660zM727 1301l-5 -804l6 -433q134 1 192.5 10.5t134.5 42.5q179 77 281 248q89 147 89 318q0 186 -105 342q-187 277 -554 277z
" />
    <glyph glyph-name="E" unicode="E" horiz-adv-x="1371" 
d="M724 927q-2 -46 -2 -112v-60l7 -690l339 4l240 3q59 0 59 -36q0 -30 -30 -34q-7 -1 -83 -2h-1136l1 52l1 334l4 358l-8 621h1060q71 0 81 -3q23 -6 23 -34q0 -35 -44 -35h-7l-501 7l-4 -310l109 -1l350 6l77 1q42 0 55.5 -7t13.5 -28q0 -39 -66 -39l-79 2z" />
    <glyph glyph-name="F" unicode="F" horiz-adv-x="1336" 
d="M724 927l-2 -242l6 -639v-46h-611l7 743l-8 622h1060q72 0 81 -3q23 -6 23 -34q0 -35 -44 -35h-7l-501 7l-4 -310l109 -1l350 6l77 1q42 0 55.5 -7t13.5 -28q0 -39 -66 -39l-79 2z" />
    <glyph glyph-name="G" unicode="G" horiz-adv-x="1553" 
d="M1506 689q-6 -297 -190 -496q-103 -111 -244.5 -172.5t-293.5 -61.5q-132 0 -260 50t-227 140q-127 116 -188 279q-48 130 -48 258q0 238 147 432q101 135 254 211.5t321 76.5q295 0 508 -203q95 -91 95 -129q0 -13 -10.5 -22t-25.5 -9q-23 0 -49 35q-201 267 -516 267
q-38 0 -77 -5l-5 -710l5 -603q37 -7 75 -7q113 0 219 38q268 95 385 349q50 107 59 218h-522q-69 2 -83 7t-14 26q0 32 48 32l60 -1h577z" />
    <glyph glyph-name="H" unicode="H" horiz-adv-x="1554" 
d="M1384 895l-2 281l-2 125q0 49 8 66t33 17q38 0 38 -61l-1 -68l-2 -222l-3 -357l3 -372l2 -261q0 -36 -7.5 -49t-29.5 -13q-23 0 -31.5 14t-8.5 51l1 85l3 502v186l-38 1l-195 4l-429 -5l1 -276l6 -543h-613l5 867l-2 229l-1 211l-2 58h613l-1 -52l-5 -418q102 -7 324 -7
q204 0 336 7z" />
    <glyph glyph-name="I" unicode="I" horiz-adv-x="844" 
d="M728 1365v-70l-5 -548l4 -747h-611l7 817l-7 499l1 49h611z" />
    <glyph glyph-name="J" unicode="J" horiz-adv-x="1307" 
d="M1186 1365l-3 -237l5 -364l3 -242q0 -249 -142 -395q-83 -86 -206 -127t-295 -41q-252 0 -388 101q-60 45 -100 111.5t-40 122.5q0 43 42 43q40 0 49 -61q18 -128 160 -198q114 -56 245 -56q19 0 62 3l1 41l2 273l4 729l-7 297h608z" />
    <glyph glyph-name="K" unicode="K" horiz-adv-x="1501" 
d="M961 1078l149 -302l225 -442t143 -254q29 -46 29 -61q0 -38 -52 -38q-23 0 -33.5 14.5t-52.5 101.5l-62 129l-98 203l-91 188l-67 137l-145 295l-183 -110l-1 -148v-99l5 -642l1 -50h-612l6 854l-2 243l-4 213v55h612l-4 -160l-1 -194l171 102q145 86 258 162
q114 75 146 92t60 17q53 0 53 -33q0 -17 -14.5 -28.5t-67.5 -36.5q-63 -30 -279 -156z" />
    <glyph glyph-name="L" unicode="L" horiz-adv-x="1371" 
d="M731 1365l-4 -209l-4 -333l1 -243l4 -515l72 -1l428 6l78 1q59 0 59 -35q0 -31 -32 -34q-7 -1 -46 -2h-1171l3 380l2 233l2 264l-4 402l1 86h611z" />
    <glyph glyph-name="M" unicode="M" horiz-adv-x="1942" 
d="M1502 1412l218 -745l99 -330l89 -299l12 -38h-608l-192 707l-413 -621l-424 590q-61 -216 -133 -530q-26 -120 -37.5 -142.5t-46.5 -22.5q-44 0 -44 30q0 9 28 101l62 213l108 368l211 719l548 -793z" />
    <glyph glyph-name="N" unicode="N" horiz-adv-x="1508" 
d="M1342 701v167l-2 265l-1 121l-1 76q0 54 37 54q22 0 30.5 -12.5t8.5 -47.5v-14q-1 -21 -1 -69l-4 -337l-3 -309l3 -325l4 -326q-206 129 -603 356.5l-643 357.5l1 -49l10 -516l1 -69q0 -43 -40 -43q-41 0 -41 53l1 70l1 113l4 513l-8 691q405 -251 1246 -720z" />
    <glyph glyph-name="O" unicode="O" horiz-adv-x="1553" 
d="M780 1406q158 0 305 -67q216 -99 330 -305q91 -165 91 -359q0 -156 -69 -302q-103 -218 -321 -331q-160 -83 -336 -83q-186 0 -352 94q-221 124 -315 348q-58 137 -58 283q0 183 91 349q112 204 327 305q143 67 307 68zM701 1339l-6 -651l5 -541l1 -122q34 -6 65 -6
q221 0 395 122q159 112 230 288q50 123 50 255q0 174 -84 324q-103 184 -290 271q-140 66 -295 66q-36 0 -71 -6z" />
    <glyph glyph-name="P" unicode="P" horiz-adv-x="1560" 
d="M725 245v-28l1 -192v-25h-610l1 61l5 703l-4 334l-1 227l-1 40h457q280 0 424.5 -24t242.5 -86q132 -83 204 -231q55 -113 55 -237q0 -134 -62 -256q-74 -146 -209.5 -224.5t-313.5 -78.5q-66 0 -189 17zM726 1297v-67l-4 -668l2 -249q79 -21 205 -21q113 0 214 45
t171 127q119 139 119 323q0 175 -118 317q-84 101 -217 147t-342 46h-30z" />
    <glyph glyph-name="Q" unicode="Q" horiz-adv-x="1551" 
d="M1218 101q91 -81 240 -171q28 -16 28 -33q0 -13 -11 -24t-24 -11q-27 0 -122.5 64t-172.5 134q-183 -101 -376 -101q-188 0 -358 95q-194 108 -292 308q-75 151 -75 320q0 280 186 485q105 117 250 179q137 60 288 60q208 0 384 -109q179 -112 271 -306q70 -148 70 -310
q0 -168 -77 -324.5t-209 -255.5zM1166 143q85 57 160 165q115 165 115 372q0 175 -89 333q-87 155 -239.5 243t-333.5 88q-40 0 -78 -7v-1311q35 -7 69 -7q189 0 335 86q-177 176 -177 210q0 11 10 21t20 10q17 0 47 -36q87 -103 161 -167z" />
    <glyph glyph-name="R" unicode="R" horiz-adv-x="1567" 
d="M949 226q96 -66 207.5 -112.5t239.5 -72.5q31 -6 31 -30q0 -33 -46 -33q-105 0 -295 92q-158 77 -362 238v-41l1 -170v-97h-609v45l2 326l3 390l-2 604h402q270 0 408 -15t235 -56q158 -66 250 -217q85 -140 85 -294q0 -164 -95 -309q-153 -233 -455 -248zM854 288l48 -1
q206 0 348 115q90 72 138 180q45 99 45 202q0 175 -114 313q-87 107 -218 151t-369 47l-9 -670v-181l1 -47q61 -59 130 -109z" />
    <glyph glyph-name="S" unicode="S" horiz-adv-x="1223" 
d="M103 232q18 0 42 -27q75 -82 183.5 -131.5t214.5 -49.5q117 0 117 71q0 45 -41 101.5t-196 223.5q-195 211 -260 313q-86 135 -86 257q0 184 164 301q161 115 397 115q165 0 303 -67q52 -26 89.5 -60t37.5 -57q0 -11 -10.5 -20.5t-21.5 -9.5q-17 0 -50 31
q-54 51 -142 84.5t-169 33.5q-50 0 -81.5 -21.5t-31.5 -55.5q0 -41 39 -100t132 -157q294 -313 360 -422q69 -115 69 -222q0 -91 -49 -172t-136 -133q-166 -99 -405 -99q-220 0 -387 114q-117 80 -117 125q0 13 10.5 23.5t24.5 10.5z" />
    <glyph glyph-name="T" unicode="T" horiz-adv-x="1414" 
d="M1019 1298l-5 -313l-3 -297l3 -688h-610l6 797l-3 271l-3 230l-132 -3l-189 -4l-28 -1q-48 0 -48 36q0 32 28 36q8 2 49 3h1227q64 -1 76 -6q20 -8 20 -34q0 -34 -51 -34l-87 3l-230 4h-20z" />
    <glyph glyph-name="U" unicode="U" horiz-adv-x="1539" 
d="M728 1365l-5 -518l-2 -544l3 -277q51 -4 89 -4q351 0 470 163q61 84 80.5 238.5t19.5 561.5l-3 265l-4 82q0 52 43 52q38 0 38 -50q0 -29 -3 -79l-8 -399q-4 -252 -9 -342.5t-20 -169.5q-31 -163 -143 -260q-143 -125 -490 -125q-304 0 -459 82q-122 63 -173 213
q-23 69 -27 142t-5 445l-4 524h612z" />
    <glyph glyph-name="V" unicode="V" horiz-adv-x="1605" 
d="M1135 566l179 335q133 246 212 410q21 44 33.5 58.5t30.5 14.5q17 0 30 -11.5t13 -27.5q0 -17 -21 -54q-5 -9 -10 -17q-10 -16 -26 -45l-740 -1334l-854 1470h701z" />
    <glyph glyph-name="W" unicode="W" horiz-adv-x="2075" 
d="M1726 647q162 387 266 668q17 46 27 57.5t34 11.5q20 0 34.5 -10t14.5 -24q0 -13 -78 -190l-58 -130l-497 -1126l-247 465l-194 346l-153 -280l-233 -437l-48 -94l-193 476l-170 413q-126 311 -243 559l-6 13h626l86 -220q132 -330 209 -495l185 340l68 128l46 86l77 144
q18 35 34 63l148 -289q128 -245 265 -475z" />
    <glyph glyph-name="X" unicode="X" horiz-adv-x="1587" 
d="M1064 801l21 -32l280 -438t232 -331h-712l-346 563q-162 -192 -375 -489q-40 -55 -60 -74t-40 -19q-36 0 -36 33q0 13 7.5 25.5t54.5 71.5l35 43l374 471l-479 740h702l303 -502q107 131 304 403q58 81 75.5 99.5t37.5 18.5q16 0 28 -11t12 -26q0 -19 -16.5 -42
t-114.5 -144z" />
    <glyph glyph-name="Y" unicode="Y" horiz-adv-x="1501" 
d="M1096 844l318 465q32 51 44 63t31 12q17 0 28.5 -9t11.5 -22t-12 -31q-8 -13 -20 -28l-32 -43l-813 -1143l-33 -45q-43 -60 -54.5 -71t-31.5 -11q-32 0 -32 28q0 15 29 49l228 310l-28 38l-429.5 570t-318.5 389h725z" />
    <glyph glyph-name="Z" unicode="Z" horiz-adv-x="1377" 
d="M1344 1365l-22 -43q-354 -712 -590 -1255h228l239 3l65 2q59 0 59 -36q0 -26 -14 -30.5t-97 -5.5h-1164l19 39q437 877 598 1262l-453 -10l-45 -1q-56 0 -56 37q0 26 24 34q14 4 69 4h1140z" />
    <glyph glyph-name="bracketleft" unicode="[" horiz-adv-x="748" 
d="M116 1407h300l132 1q76 1 76 -38q0 -37 -67 -37l-71 1h-70l-3 -321l-3 -436l3 -435l3 -322l70 1l65 1q73 0 73 -37q0 -40 -85 -38l-123 1h-300v57l5 284l6 488l-6 489l-5 284v57z" />
    <glyph glyph-name="backslash" unicode="\" horiz-adv-x="955" 
d="M101 1407q35 0 61 -64q7 -19 38 -84l110 -232l203 -431l200 -421l161 -340q18 -39 18 -50q0 -16 -13.5 -26.5t-32.5 -10.5q-17 0 -26 13t-46 91l-46 100l-92 193l-197 417l-315 661l-39 84q-24 49 -24 64q0 14 11.5 25t28.5 11z" />
    <glyph glyph-name="bracketright" unicode="]" horiz-adv-x="748" 
d="M624 -252h-300l-131 -1q-77 -1 -77 38q0 37 67 37l71 -1q62 0 70 -1l3 322l3 435l-3 436l-3 321h-70l-71 -1q-67 0 -67 37q0 40 85 38l123 -1h300v-57l-5 -284l-6 -488l6 -489l5 -284v-57z" />
    <glyph glyph-name="asciicircum" unicode="^" horiz-adv-x="1024" 
d="M1094 559h-167l-259 424l-294 -424h-444l607 875h21z" />
    <glyph glyph-name="underscore" unicode="_" horiz-adv-x="1024" 
d="M-3 -192h1031v-200h-1031v200z" />
    <glyph glyph-name="grave" unicode="`" horiz-adv-x="1024" 
d="M683 1204h-234l-216 274h352z" />
    <glyph glyph-name="a" unicode="a" horiz-adv-x="1442" 
d="M825 666v122q-1 127 -4 156t-18 52q-36 56 -168 56q-204 0 -315 -128q-45 -52 -76 -52q-23 0 -40 16t-17 37q0 63 149 130q142 64 367 64q370 0 522 -112q66 -49 86 -110t20 -215v-397q-4 -110 6.5 -165.5t47.5 -119.5h-560v105q-92 -63 -182.5 -95t-178.5 -32
q-149 0 -265 87q-151 114 -151 296q0 161 122 260q142 117 352 117q86 0 152 -15.5t151 -56.5zM826 594q-126 63 -195 63q-58 0 -76 -46q-10 -25 -10 -145v-239q1 -79 5 -96q10 -46 68 -46q46 0 102.5 27.5t103.5 72.5z" />
    <glyph glyph-name="b" unicode="b" horiz-adv-x="1528" 
d="M116 1365h512l-4 -378q76 66 157.5 99t169.5 33q196 0 353 -143q177 -161 177 -419q0 -266 -182 -439q-148 -140 -339 -140q-98 0 -175 35t-158 117v-130h-511v45l3 485l-1 346zM624 905v-682q67 -71 106 -103q80 -65 145 -65q45 0 58 43q6 20 7 101v672l1 44
q0 76 -13.5 103.5t-51.5 27.5q-48 0 -111 -35t-141 -106z" />
    <glyph glyph-name="c" unicode="c" horiz-adv-x="1154" 
d="M586 875v-668l-1 -64q0 -62 15.5 -82.5t62.5 -20.5q118 0 232 72.5t186 194.5q22 37 43 37q15 0 27.5 -13.5t12.5 -28.5q0 -36 -58 -101.5t-135 -117.5q-157 -105 -336 -105q-245 0 -405 152q-182 171 -182 419q0 256 192 426q161 144 397 144q188 0 329 -89
q60 -38 98 -81.5t38 -73.5q0 -15 -11 -25.5t-27 -10.5q-21 0 -53 48q-46 67 -145 116.5t-187 49.5q-59 0 -76 -33t-17 -145z" />
    <glyph glyph-name="d" unicode="d" horiz-adv-x="1528" 
d="M1412 1365l-2 -489l-1 -346l3 -485v-45h-511v130q-82 -82 -158.5 -117t-173.5 -35q-190 0 -338 140q-183 173 -183 439q0 258 177 419q157 143 353 143q87 0 168.5 -33t157.5 -99l-4 378h512zM904 905q-78 71 -140.5 106t-110.5 35q-38 0 -51.5 -27.5t-13.5 -103.5l1 -44
v-672q1 -81 7 -101q12 -43 58 -43q50 0 106 37.5t144 130.5v682z" />
    <glyph glyph-name="e" unicode="e" horiz-adv-x="1226" 
d="M515 514v-310q0 -90 11 -114q21 -46 99 -46q116 0 229.5 63.5t196.5 175.5q27 37 39 47t26 10q17 0 28 -12.5t11 -31.5q0 -42 -67 -113q-88 -91 -218.5 -148t-254.5 -57q-213 0 -376 143q-95 84 -146 207q-45 108 -45 216q0 104 40 208.5t110 180.5q81 89 192 138
q109 48 228 48q185 0 335 -109q234 -170 232 -493h-233l-300 -1zM771 580v292q-2 94 -4 112.5t-14 34.5q-28 39 -114 39q-88 0 -110 -45q-14 -27 -14 -141v-292l122 -4z" />
    <glyph glyph-name="f" unicode="f" horiz-adv-x="787" 
d="M644 1033l-2 -300l-2 -372l4 -321v-40h-511v34l2 162l2 351l-4 457v29h-18l-77 -3q-45 0 -45 35t41 35l48 -3h58q14 84 35.5 131.5t66.5 91.5q125 124 357 124q114 0 201 -34t87 -78q0 -17 -13.5 -29.5t-31.5 -12.5q-20 0 -39 22q-24 30 -37 39t-31 9q-51 0 -72 -58.5
t-22 -204.5h93q6 0 26 2q17 1 32 1q41 0 41 -36q0 -34 -49 -34l-73 2z" />
    <glyph glyph-name="g" unicode="g" horiz-adv-x="1149" 
d="M893 1049q86 -42 144 -111q77 -93 77 -215q0 -87 -44 -165t-123 -131q-146 -99 -352 -99q-95 0 -175 17t-146 51q-47 -32 -47 -65q0 -39 53 -46q115 -15 158 -9l6 1h299l15 1q150 9 216 -50q51 -47 51 -110q0 -53 -36 -96q-60 -71 -162 -71q-19 0 -48 2q16 25 16 39
q0 31 -56 31q-48 0 -201 -21q-107 -15 -177 -15q-110 0 -191 47q-47 27 -74 74t-27 102q0 62 32.5 113.5t108.5 108.5q-71 45 -110 117.5t-39 157.5q0 202 203 322q152 90 369 90q48 0 100 -5q71 -6 103 -6q79 0 115 70q21 42 45 42q19 0 33 -12.5t14 -30.5q0 -36 -40 -70.5
t-110 -57.5zM500 939v-423q0 -76 12 -94q20 -29 83 -29q58 0 77.5 27.5t19.5 108.5v408q0 68 -19.5 91t-76.5 23t-76.5 -23t-19.5 -89z" />
    <glyph glyph-name="h" unicode="h" horiz-adv-x="1553" 
d="M627 951q96 65 157 95q150 73 297 73q106 0 191 -38t126 -104q49 -79 49 -290l-2 -149l-2 -197l7 -341h-513l4 618l-5 316q-10 52 -74 52q-47 0 -105.5 -28.5t-129.5 -86.5l-2 -251l4 -435l3 -185h-515l2 422v481l-3 416l1 46h510v-28l1 -171l-1 -106v-109z" />
    <glyph glyph-name="i" unicode="i" horiz-adv-x="752" 
d="M372 1442q264 0 264 -138q0 -67 -69.5 -104.5t-195.5 -37.5q-251 0 -251 142q0 136 252 138zM631 1092v-29l-2 -156l-2 -242l-3 -368l4 -207l2 -90h-514l5 368l3 325l-2 171l-3 190l1 38h511z" />
    <glyph glyph-name="j" unicode="j" horiz-adv-x="813" 
d="M701 1092l-2 -213l2 -148l1 -115q0 -266 -11 -339.5t-63 -151.5q-124 -183 -368 -183q-132 0 -215 53q-65 42 -65 85q0 18 12.5 31.5t28.5 13.5q17 0 26 -9t35 -53t68 -44q26 0 35.5 15.5t11.5 59.5l4 313l-3 328l-2 167l-2 148v42h507zM444 1442q262 0 262 -138
q0 -67 -69.5 -104.5t-195.5 -37.5q-251 0 -251 142q0 136 254 138z" />
    <glyph glyph-name="k" unicode="k" horiz-adv-x="1488" 
d="M987 883l114 -189l109 -184q161 -266 219.5 -351.5t130.5 -158.5h-595l-185 323q-102 181 -156 262v-46l1 -180l2 -312l1 -47h-512l4 482l1 278l-4 558l-1 47h512l-4 -657v-54q279 251 385 329q138 104 241 104q77 0 77 -56q0 -20 -14 -33.5t-35 -13.5q-12 0 -28 5
q-28 8 -43 8q-42 0 -89 -24.5t-131 -89.5z" />
    <glyph glyph-name="l" unicode="l" horiz-adv-x="743" 
d="M626 1365l1 -51l-2 -352l-1 -152l-2 -277l4 -494v-39h-510v47l2 159l1 288l2 377l-1 203l-3 223l1 68h508z" />
    <glyph glyph-name="m" unicode="m" horiz-adv-x="2366" 
d="M1416 930q130 100 242.5 144.5t237.5 44.5q229 0 319 -147q26 -44 36 -101.5t10 -170.5l-4 -264v-62l5 -333l1 -41h-513l4 316l5 318l-1 129q-1 71 0 83q1 79 -17 109t-65 30q-50 0 -109.5 -29t-128.5 -88q5 -39 5 -112l-2 -250l-2 -281q0 -124 5 -225h-512l2 218l3 470
q0 232 -6 256q-11 43 -72 43q-46 0 -103.5 -28.5t-127.5 -86.5l-4 -423l5 -449h-513v40l2 182l1 248l1 240l-4 382h512v-140q112 84 223.5 125.5t222.5 41.5q167 0 269 -84q41 -33 73 -105z" />
    <glyph glyph-name="n" unicode="n" horiz-adv-x="1544" 
d="M628 1092v-139q117 83 229 124.5t218 41.5q142 0 240 -65q74 -49 99.5 -121.5t25.5 -236.5l-2 -463l3 -233h-509l4 278l3 204l-1 308q-1 107 -2.5 127.5t-9.5 36.5q-16 32 -69 32q-49 0 -106 -28t-123 -84l-1 -41l-2 -281l-2 -215l3 -294l1 -43h-511l3 392l3 259l-3 224
l-3 217h512z" />
    <glyph glyph-name="o" unicode="o" horiz-adv-x="1227" 
d="M616 1119q161 0 305 -89q133 -82 203 -224q62 -125 62 -265q0 -96 -36.5 -193t-99.5 -172q-88 -103 -215 -155q-104 -43 -217 -43q-189 0 -340 112q-118 86 -179 221q-51 114 -51 241q0 248 180 412q169 152 388 155zM587 1054l-3 -1008q31 -2 43 -2q139 0 266 78
q122 76 183 202q48 100 48 220q0 241 -178 391q-144 121 -313 121q-14 0 -46 -2z" />
    <glyph glyph-name="p" unicode="p" horiz-adv-x="1494" 
d="M116 1092h511l-3 -131q101 87 185 122.5t185 35.5q207 0 336 -154q116 -138 116 -351q0 -227 -133 -373q-123 -135 -307 -135q-97 0 -193 40.5t-191 121.5l1 -37l1 -131l2 -109l1 -37h-511l1 285l2 265l-3 553v35zM624 871v-522q73 -68 131 -102.5t101 -34.5q40 0 47 39
q2 13 3 135v489q0 87 -3 104q-7 42 -42 42q-45 0 -109 -40.5t-128 -109.5z" />
    <glyph glyph-name="q" unicode="q" horiz-adv-x="1494" 
d="M1378 1092l-3 -588l2 -265l1 -285h-511l1 37l2 109l2 168q-95 -81 -191 -121.5t-193 -40.5q-184 0 -307 135q-133 146 -133 373q0 213 116 351q129 154 336 154q102 0 185 -35.5t185 -122.5l-3 131h511zM870 871q-61 65 -109 97q-80 53 -128 53q-37 0 -43 -46
q-2 -17 -2 -100v-489q1 -127 4 -141q8 -33 46 -33q43 0 101 34.5t131 102.5v522z" />
    <glyph glyph-name="r" unicode="r" horiz-adv-x="1086" 
d="M627 782l-2 -384l4 -398h-513l1 55l1 204l3 367l-4 408l-1 58h512v-206q115 122 160 154q104 73 196 73q56 0 92.5 -24t36.5 -61q0 -29 -22 -48t-55 -19q-21 0 -47 12q-44 21 -73 21q-72 0 -139 -49t-150 -163z" />
    <glyph glyph-name="s" unicode="s" horiz-adv-x="985" 
d="M98 185q20 0 51 -30q50 -47 142 -80.5t172 -33.5q37 0 55.5 12.5t18.5 36.5t-25.5 57.5t-113.5 128.5q-215 230 -278.5 323.5t-63.5 179.5q0 75 43.5 143.5t121.5 116.5q129 80 296 80q123 0 260 -52q107 -41 107 -89q0 -15 -12.5 -27t-28.5 -12q-19 0 -71 37
q-106 76 -231 76q-44 0 -66.5 -14t-22.5 -43q0 -34 41.5 -86t168.5 -176q124 -121 157.5 -158.5t64.5 -86.5q53 -84 53 -182q0 -154 -149 -249q-122 -79 -300 -79q-198 0 -351 88q-45 27 -61.5 44t-16.5 37q0 37 39 38z" />
    <glyph glyph-name="t" unicode="t" horiz-adv-x="886" 
d="M667 1444l-11 -323l-1 -31q87 0 158 7q12 1 21 1q44 0 44 -40q0 -37 -46 -37q-14 0 -35 2q-79 6 -113 6h-29l-1 -194l4 -389l3 -208q0 -73 11 -102t38 -29q36 0 77 42q40 42 63 103q21 58 50 58q34 0 34 -38t-34 -94.5t-82 -98.5q-118 -103 -306 -103q-177 0 -274 107
q-50 54 -69 120.5t-19 184.5v75l1 211v358q-14 1 -20 1q-10 0 -40 -2q-25 -2 -42 -2q-49 0 -49 37q0 36 47 36q22 0 31 -1l73 -5v113q296 107 516 235z" />
    <glyph glyph-name="u" unicode="u" horiz-adv-x="1546" 
d="M1430 1092l-3 -786l3 -306h-511v141q-127 -87 -231.5 -125t-218.5 -38q-209 0 -303 124q-35 46 -48.5 104.5t-13.5 166.5l2 234l1 156l-5 329h511l-5 -502l1 -190l1 -128q0 -115 14 -138q17 -26 64 -26q48 0 99.5 25t133.5 89l1 131l2 357l-6 351v31h512z" />
    <glyph glyph-name="v" unicode="v" horiz-adv-x="1291" 
d="M925 507q236 414 285 537q25 58 37.5 74t31.5 16q20 0 36 -11.5t16 -25.5q0 -16 -22 -53l-583 -1047l-31 -57l-266 419l-88 139l-92 141l-79 125l-225 328h622l242 -401z" />
    <glyph glyph-name="w" unicode="w" horiz-adv-x="1769" 
d="M1487 545q108 225 213 500q25 66 34.5 80t27.5 14q19 0 33 -11.5t14 -26.5q0 -14 -10.5 -40t-74.5 -166l-127 -277l-116 -250l-95 -209l-100 -229l-378 651q-38 -63 -101 -179l-254 -472l-187 359l-143 272l-123 236l-155 295h568l287 -560q83 139 115 198l231 438z" />
    <glyph glyph-name="x" unicode="x" horiz-adv-x="1458" 
d="M960 653l79 -109q142 -197 237.5 -315.5t199.5 -228.5h-656l-322 445q-185 -186 -350 -393q-58 -74 -85 -74q-15 0 -32.5 17t-17.5 31q0 25 72 91q174 165 371 383l-88 123q-243 340 -372 469h651l273 -386q212 235 308 356q45 58 69 58q16 0 33.5 -17t17.5 -32
q0 -21 -56 -71q-39 -36 -158 -161z" />
    <glyph glyph-name="y" unicode="y" horiz-adv-x="1236" 
d="M877 594q195 299 285 454q32 53 40 62t23 9q20 0 36 -15t16 -34q0 -15 -17 -36q-144 -196 -365 -532l-176 -269q-91 -138 -150 -199q-44 -43 -104.5 -70t-116.5 -27q-55 0 -90.5 21.5t-35.5 54.5q0 21 16 36t39 15q17 0 66 -23q32 -15 55 -15q45 0 85.5 27.5t88.5 90.5
l-118 185q-381 592 -509 763h636q60 -131 138 -262t158 -236z" />
    <glyph glyph-name="z" unicode="z" horiz-adv-x="1343" 
d="M1330 1092l-568 -865l-83 -132l-16 -27h127q209 0 417 19q28 2 44 2q50 0 50 -48q0 -47 -66 -47l-60 1l-523 5h-649q203 269 521 778l133 212l25 40l-106 1q-220 0 -362 -12q-30 -3 -48 -3q-47 0 -47 41q0 27 12.5 36.5t45.5 9.5l35 -1l635 -10h483z" />
    <glyph glyph-name="braceleft" unicode="{" 
d="M468 584q172 -14 246.5 -69.5t74.5 -170.5v-408q0 -63 14.5 -81.5t64.5 -18.5l46 1h36q48 0 63 -3q36 -6 36 -38q0 -26 -32 -31.5t-188 -5.5q-233 0 -326 84q-39 35 -53 82.5t-14 143.5v339q0 83 -18.5 110.5t-74.5 27.5h-18q-39 0 -39 38q0 37 39 37h18q56 0 74.5 27.5
t18.5 109.5v339q0 102 16 151t61 84q97 75 316 75q157 0 188.5 -5.5t31.5 -31.5q0 -32 -36 -38q-15 -3 -62 -3h-37l-46 1q-50 0 -64.5 -18.5t-14.5 -80.5v-408q0 -116 -74.5 -171t-246.5 -68z" />
    <glyph glyph-name="bar" unicode="|" horiz-adv-x="1024" 
d="M378 1365h270v-1706h-270v1706z" />
    <glyph glyph-name="braceright" unicode="}" 
d="M856 584q-172 13 -246.5 68t-74.5 171v408q0 62 -14.5 80.5t-64.5 18.5l-46 -1h-36q-48 0 -63 3q-36 6 -36 38q0 26 31.5 31.5t188.5 5.5q233 0 326 -84q39 -35 53 -82.5t14 -143.5v-339q0 -82 18.5 -109.5t74.5 -27.5h18q39 0 39 -37q0 -38 -39 -38h-18
q-56 0 -74.5 -27.5t-18.5 -110.5v-339q0 -101 -16.5 -150t-60.5 -85q-96 -75 -316 -75q-157 0 -188.5 5.5t-31.5 31.5q0 32 36 38q15 3 62 3h37l46 -1q50 0 64.5 18.5t14.5 81.5v408q0 115 74.5 170.5t246.5 69.5z" />
    <glyph glyph-name="asciitilde" unicode="~" horiz-adv-x="1365" 
d="M1084 821l72 -36q-53 -88 -142 -175q-42 -41 -85 -57.5t-110 -16.5q-61 0 -225 54q-75 24 -143 24t-113 -31q-10 -6 -34 -26q-7 -7 -22 -19l-69 35q88 136 149 185q83 66 172 66q57 0 189 -39q137 -41 197 -41q85 0 164 77z" />
    <glyph glyph-name="Adieresis" unicode="&#xc4;" horiz-adv-x="1599" 
d="M825 1447l800 -1447h-693l-95 183h-336l-296 1l-50 1l-66 -122q-29 -55 -40.5 -68.5t-28.5 -13.5q-34 0 -34 30q0 13 19.5 48.5t136.5 233.5l605 1019zM514 792l-175 -295l-140 -243l300 -4l301 3zM1068 1767q88 0 141 -37.5t53 -100.5q0 -65 -54 -105.5t-140 -40.5
t-140 38.5t-54 100.5q0 65 52.5 104.5t141.5 40.5zM569 1767q89 0 142 -37.5t53 -100.5q0 -65 -54 -105.5t-140 -40.5t-140 38.5t-54 100.5q0 65 52.5 104.5t140.5 40.5z" />
    <glyph glyph-name="Aring" unicode="&#xc5;" horiz-adv-x="1599" 
d="M825 1447l800 -1447h-693l-95 183h-336l-296 1l-50 1l-66 -122q-29 -55 -40.5 -68.5t-28.5 -13.5q-34 0 -34 30q0 13 19.5 48.5t136.5 233.5l605 1019zM514 792l-175 -295l-140 -243l300 -4l301 3zM820 1869q89 0 148 -59t59 -144t-61 -142t-151 -57q-89 0 -146 56
t-57 144q0 87 58.5 144t149.5 58zM774 1542q19 -5 33.5 -7.5t24.5 -2.5q52 0 91.5 41t39.5 95q0 57 -40 97q-41 40 -91 40q-10 0 -24.5 -2.5t-33.5 -8.5v-252z" />
    <glyph glyph-name="Ccedilla" unicode="&#xc7;" horiz-adv-x="1446" 
d="M764 -41l-47 -99q26 2 37 2q182 0 182 -152q0 -73 -56 -116t-151 -43q-83 0 -132 37q-40 30 -40 57q0 10 8.5 18.5t19.5 8.5q8 0 20 -9q43 -32 60.5 -40t44.5 -8q19 0 44 9v178q-22 5 -34 5q-16 0 -37 -7q-19 -6 -31 -6q-22 0 -22 22q0 9 11 34l55 115q-245 38 -409 189
q-120 109 -181 266q-51 129 -51 263q0 196 102 370q109 185 309 283q144 70 312 70q289 0 499 -195q100 -93 100 -134q0 -11 -10 -20t-22 -9q-20 0 -48 38q-86 120 -227 189.5t-299 69.5q-37 0 -70 -8l-5 -708l5 -602q51 -7 86 -7q99 0 201.5 35t181.5 95q51 38 105.5 104
t87.5 127q19 36 41 36q33 0 33 -28q0 -30 -49.5 -101.5t-108.5 -128.5q-127 -122 -301 -171q-106 -29 -186 -29h-28z" />
    <glyph glyph-name="Eacute" unicode="&#xc9;" horiz-adv-x="1371" 
d="M724 927q-2 -46 -2 -112v-60l7 -690l339 4l240 3q59 0 59 -36q0 -30 -30 -34q-7 -1 -83 -2h-1136l1 52l1 334l4 358l-8 621h1060q71 0 81 -3q23 -6 23 -34q0 -35 -44 -35h-7l-501 7l-4 -310l109 -1l350 6l77 1q42 0 55.5 -7t13.5 -28q0 -39 -66 -39l-79 2zM597 1476
l98 274h352l-216 -274h-234z" />
    <glyph glyph-name="Ntilde" unicode="&#xd1;" horiz-adv-x="1508" 
d="M1342 701v167l-2 265l-1 121l-1 76q0 54 37 54q22 0 30.5 -12.5t8.5 -47.5v-14q-1 -21 -1 -69l-4 -337l-3 -309l3 -325l4 -326q-206 129 -603 356.5l-643 357.5l1 -49l10 -516l1 -69q0 -43 -40 -43q-41 0 -41 53l1 70l1 113l4 513l-8 691q405 -251 1246 -720zM681 1769
l427 -101l84 75q22 20 34 20q11 0 21 -9.5t10 -20.5q0 -10 -23 -32l-252 -242l-436 102l-87 -78q-21 -19 -37 -19q-11 0 -20.5 9.5t-9.5 19.5q0 15 23 36z" />
    <glyph glyph-name="Odieresis" unicode="&#xd6;" horiz-adv-x="1553" 
d="M780 1406q158 0 305 -67q216 -99 330 -305q91 -165 91 -359q0 -156 -69 -302q-103 -218 -321 -331q-160 -83 -336 -83q-186 0 -352 94q-221 124 -315 348q-58 137 -58 283q0 183 91 349q112 204 327 305q143 67 307 68zM701 1339l-6 -651l5 -541l1 -122q34 -6 65 -6
q221 0 395 122q159 112 230 288q50 123 50 255q0 174 -84 324q-103 184 -290 271q-140 66 -295 66q-36 0 -71 -6zM1031 1769q88 0 141 -37.5t53 -100.5q0 -65 -54 -105.5t-140 -40.5t-140 38.5t-54 100.5q0 65 52.5 104.5t141.5 40.5zM532 1769q89 0 142 -37.5t53 -100.5
q0 -65 -54 -105.5t-140 -40.5t-140 38.5t-54 100.5q0 65 52.5 104.5t140.5 40.5z" />
    <glyph glyph-name="Udieresis" unicode="&#xdc;" horiz-adv-x="1539" 
d="M728 1365l-5 -518l-2 -544l3 -277q51 -4 89 -4q351 0 470 163q61 84 80.5 238.5t19.5 561.5l-3 265l-4 82q0 52 43 52q38 0 38 -50q0 -29 -3 -79l-8 -399q-4 -252 -9 -342.5t-20 -169.5q-31 -163 -143 -260q-143 -125 -490 -125q-304 0 -459 82q-122 63 -173 213
q-23 69 -27 142t-5 445l-4 524h612zM1063 1769q88 0 141 -37.5t53 -100.5q0 -65 -54 -105.5t-140 -40.5t-140 38.5t-54 100.5q0 65 52.5 104.5t141.5 40.5zM564 1769q89 0 142 -37.5t53 -100.5q0 -65 -54 -105.5t-140 -40.5t-140 38.5t-54 100.5q0 65 52.5 104.5t140.5 40.5
z" />
    <glyph glyph-name="aacute" unicode="&#xe1;" horiz-adv-x="1442" 
d="M825 666v122q-1 127 -4 156t-18 52q-36 56 -168 56q-204 0 -315 -128q-45 -52 -76 -52q-23 0 -40 16t-17 37q0 63 149 130q142 64 367 64q370 0 522 -112q66 -49 86 -110t20 -215v-397q-4 -110 6.5 -165.5t47.5 -119.5h-560v105q-92 -63 -182.5 -95t-178.5 -32
q-149 0 -265 87q-151 114 -151 296q0 161 122 260q142 117 352 117q86 0 152 -15.5t151 -56.5zM826 594q-126 63 -195 63q-58 0 -76 -46q-10 -25 -10 -145v-239q1 -79 5 -96q10 -46 68 -46q46 0 102.5 27.5t103.5 72.5zM578 1204l98 274h352l-216 -274h-234z" />
    <glyph glyph-name="agrave" unicode="&#xe0;" horiz-adv-x="1442" 
d="M825 666v122q-1 127 -4 156t-18 52q-36 56 -168 56q-204 0 -315 -128q-45 -52 -76 -52q-23 0 -40 16t-17 37q0 63 149 130q142 64 367 64q370 0 522 -112q66 -49 86 -110t20 -215v-397q-4 -110 6.5 -165.5t47.5 -119.5h-560v105q-92 -63 -182.5 -95t-178.5 -32
q-149 0 -265 87q-151 114 -151 296q0 161 122 260q142 117 352 117q86 0 152 -15.5t151 -56.5zM826 594q-126 63 -195 63q-58 0 -76 -46q-10 -25 -10 -145v-239q1 -79 5 -96q10 -46 68 -46q46 0 102.5 27.5t103.5 72.5zM892 1204h-234l-216 274h352z" />
    <glyph glyph-name="acircumflex" unicode="&#xe2;" horiz-adv-x="1442" 
d="M825 666v122q-1 127 -4 156t-18 52q-36 56 -168 56q-204 0 -315 -128q-45 -52 -76 -52q-23 0 -40 16t-17 37q0 63 149 130q142 64 367 64q370 0 522 -112q66 -49 86 -110t20 -215v-397q-4 -110 6.5 -165.5t47.5 -119.5h-560v105q-92 -63 -182.5 -95t-178.5 -32
q-149 0 -265 87q-151 114 -151 296q0 161 122 260q142 117 352 117q86 0 152 -15.5t151 -56.5zM826 594q-126 63 -195 63q-58 0 -76 -46q-10 -25 -10 -145v-239q1 -79 5 -96q10 -46 68 -46q46 0 102.5 27.5t103.5 72.5zM1121 1213h-375l-145 209l-138 -164q-48 -57 -73 -57
q-27 0 -27 27q0 11 32 51l19 21l157 182h343z" />
    <glyph glyph-name="adieresis" unicode="&#xe4;" horiz-adv-x="1442" 
d="M825 666v122q-1 127 -4 156t-18 52q-36 56 -168 56q-204 0 -315 -128q-45 -52 -76 -52q-23 0 -40 16t-17 37q0 63 149 130q142 64 367 64q370 0 522 -112q66 -49 86 -110t20 -215v-397q-4 -110 6.5 -165.5t47.5 -119.5h-560v105q-92 -63 -182.5 -95t-178.5 -32
q-149 0 -265 87q-151 114 -151 296q0 161 122 260q142 117 352 117q86 0 152 -15.5t151 -56.5zM826 594q-126 63 -195 63q-58 0 -76 -46q-10 -25 -10 -145v-239q1 -79 5 -96q10 -46 68 -46q46 0 102.5 27.5t103.5 72.5zM987 1495q88 0 141 -37.5t53 -100.5q0 -65 -54 -105.5
t-140 -40.5t-140 38.5t-54 100.5q0 65 52.5 104.5t141.5 40.5zM488 1495q89 0 142 -37.5t53 -100.5q0 -65 -54 -105.5t-140 -40.5t-140 38.5t-54 100.5q0 65 52.5 104.5t140.5 40.5z" />
    <glyph glyph-name="atilde" unicode="&#xe3;" horiz-adv-x="1442" 
d="M825 666v122q-1 127 -4 156t-18 52q-36 56 -168 56q-204 0 -315 -128q-45 -52 -76 -52q-23 0 -40 16t-17 37q0 63 149 130q142 64 367 64q370 0 522 -112q66 -49 86 -110t20 -215v-397q-4 -110 6.5 -165.5t47.5 -119.5h-560v105q-92 -63 -182.5 -95t-178.5 -32
q-149 0 -265 87q-151 114 -151 296q0 161 122 260q142 117 352 117q86 0 152 -15.5t151 -56.5zM826 594q-126 63 -195 63q-58 0 -76 -46q-10 -25 -10 -145v-239q1 -79 5 -96q10 -46 68 -46q46 0 102.5 27.5t103.5 72.5zM633 1509l427 -101l84 75q22 20 34 20q11 0 21 -9.5
t10 -20.5q0 -10 -23 -32l-252 -242l-436 102l-87 -78q-21 -19 -37 -19q-11 0 -20.5 9.5t-9.5 19.5q0 15 23 36z" />
    <glyph glyph-name="aring" unicode="&#xe5;" horiz-adv-x="1442" 
d="M825 666v122q-1 127 -4 156t-18 52q-36 56 -168 56q-204 0 -315 -128q-45 -52 -76 -52q-23 0 -40 16t-17 37q0 63 149 130q142 64 367 64q370 0 522 -112q66 -49 86 -110t20 -215v-397q-4 -110 6.5 -165.5t47.5 -119.5h-560v105q-92 -63 -182.5 -95t-178.5 -32
q-149 0 -265 87q-151 114 -151 296q0 161 122 260q142 117 352 117q86 0 152 -15.5t151 -56.5zM826 594q-126 63 -195 63q-58 0 -76 -46q-10 -25 -10 -145v-239q1 -79 5 -96q10 -46 68 -46q46 0 102.5 27.5t103.5 72.5zM735 1603q89 0 148 -59t59 -144t-61 -142t-151 -57
q-89 0 -146 56t-57 144q0 87 58.5 144t149.5 58zM689 1276q19 -5 33.5 -7.5t24.5 -2.5q52 0 91.5 41t39.5 95q0 57 -40 97q-41 40 -91 40q-10 0 -24.5 -2.5t-33.5 -8.5v-252z" />
    <glyph glyph-name="ccedilla" unicode="&#xe7;" horiz-adv-x="1154" 
d="M632 -22l-56 -119q26 3 37 3q182 0 182 -152q0 -74 -56 -117t-151 -43q-82 0 -132 37q-40 30 -40 58q0 10 8.5 18.5t19.5 8.5q8 0 20 -9q41 -31 60 -40t46 -9q19 0 43 9v179q-21 5 -33 5q-17 0 -37 -7q-20 -6 -31 -6q-22 0 -22 22q0 9 25 62l49 103q-158 16 -275 100
q-111 80 -175 199q-66 125 -66 269q0 256 192 426q161 144 396 144q189 0 329 -89q60 -38 98 -81.5t38 -73.5q0 -15 -11.5 -25.5t-26.5 -10.5q-21 0 -53 48q-46 67 -145 116.5t-186 49.5q-59 0 -76 -32.5t-17 -145.5v-667l-1 -64q0 -62 15.5 -82.5t61.5 -20.5q111 0 234 73
q107 63 184 193q22 37 43 37q15 0 27.5 -13.5t12.5 -28.5q0 -46 -83.5 -128.5t-178.5 -131.5q-129 -65 -269 -64z" />
    <glyph glyph-name="eacute" unicode="&#xe9;" horiz-adv-x="1226" 
d="M515 514v-310q0 -90 11 -114q21 -46 99 -46q116 0 229.5 63.5t196.5 175.5q27 37 39 47t26 10q17 0 28 -12.5t11 -31.5q0 -42 -67 -113q-88 -91 -218.5 -148t-254.5 -57q-213 0 -376 143q-95 84 -146 207q-45 108 -45 216q0 104 40 208.5t110 180.5q81 89 192 138
q109 48 228 48q185 0 335 -109q234 -170 232 -493h-233l-300 -1zM771 580v292q-2 94 -4 112.5t-14 34.5q-28 39 -114 39q-88 0 -110 -45q-14 -27 -14 -141v-292l122 -4zM470 1204l98 274h352l-216 -274h-234z" />
    <glyph glyph-name="egrave" unicode="&#xe8;" horiz-adv-x="1226" 
d="M515 514v-310q0 -90 11 -114q21 -46 99 -46q116 0 229.5 63.5t196.5 175.5q27 37 39 47t26 10q17 0 28 -12.5t11 -31.5q0 -42 -67 -113q-88 -91 -218.5 -148t-254.5 -57q-213 0 -376 143q-95 84 -146 207q-45 108 -45 216q0 104 40 208.5t110 180.5q81 89 192 138
q109 48 228 48q185 0 335 -109q234 -170 232 -493h-233l-300 -1zM771 580v292q-2 94 -4 112.5t-14 34.5q-28 39 -114 39q-88 0 -110 -45q-14 -27 -14 -141v-292l122 -4zM784 1204h-234l-216 274h352z" />
    <glyph glyph-name="ecircumflex" unicode="&#xea;" horiz-adv-x="1226" 
d="M515 514v-310q0 -90 11 -114q21 -46 99 -46q116 0 229.5 63.5t196.5 175.5q27 37 39 47t26 10q17 0 28 -12.5t11 -31.5q0 -42 -67 -113q-88 -91 -218.5 -148t-254.5 -57q-213 0 -376 143q-95 84 -146 207q-45 108 -45 216q0 104 40 208.5t110 180.5q81 89 192 138
q109 48 228 48q185 0 335 -109q234 -170 232 -493h-233l-300 -1zM771 580v292q-2 94 -4 112.5t-14 34.5q-28 39 -114 39q-88 0 -110 -45q-14 -27 -14 -141v-292l122 -4zM1026 1213h-375l-145 209l-138 -164q-48 -57 -73 -57q-27 0 -27 27q0 11 32 51l19 21l157 182h343z" />
    <glyph glyph-name="edieresis" unicode="&#xeb;" horiz-adv-x="1226" 
d="M515 514v-310q0 -90 11 -114q21 -46 99 -46q116 0 229.5 63.5t196.5 175.5q27 37 39 47t26 10q17 0 28 -12.5t11 -31.5q0 -42 -67 -113q-88 -91 -218.5 -148t-254.5 -57q-213 0 -376 143q-95 84 -146 207q-45 108 -45 216q0 104 40 208.5t110 180.5q81 89 192 138
q109 48 228 48q185 0 335 -109q234 -170 232 -493h-233l-300 -1zM771 580v292q-2 94 -4 112.5t-14 34.5q-28 39 -114 39q-88 0 -110 -45q-14 -27 -14 -141v-292l122 -4zM880 1495q88 0 141 -37.5t53 -100.5q0 -65 -54 -105.5t-140 -40.5t-140 38.5t-54 100.5
q0 65 52.5 104.5t141.5 40.5zM381 1495q89 0 142 -37.5t53 -100.5q0 -65 -54 -105.5t-140 -40.5t-140 38.5t-54 100.5q0 65 52.5 104.5t140.5 40.5z" />
    <glyph glyph-name="iacute" unicode="&#xed;" horiz-adv-x="752" 
d="M631 1092v-29l-2 -156l-2 -242l-3 -368l4 -207l2 -90h-514l5 368l3 325l-2 171l-3 190l1 38h511zM237 1204l98 274h352l-216 -274h-234z" />
    <glyph glyph-name="igrave" unicode="&#xec;" horiz-adv-x="752" 
d="M635 1092v-29l-2 -156l-2 -242l-3 -368l4 -207l2 -90h-514l5 368l3 325l-2 171l-3 190l1 38h511zM528 1204h-234l-216 274h352z" />
    <glyph glyph-name="icircumflex" unicode="&#xee;" horiz-adv-x="752" 
d="M634 1092v-29l-2 -156l-2 -242l-3 -368l4 -207l2 -90h-514l5 368l3 325l-2 171l-3 190l1 38h511zM762 1213h-375l-145 209l-138 -164q-48 -57 -73 -57q-27 0 -27 27q0 11 32 51l19 21l157 182h343z" />
    <glyph glyph-name="idieresis" unicode="&#xef;" horiz-adv-x="752" 
d="M631 1092v-29l-2 -156l-2 -242l-3 -368l4 -207l2 -90h-514l5 368l3 325l-2 171l-3 190l1 38h511zM623 1495q88 0 141 -37.5t53 -100.5q0 -65 -54 -105.5t-140 -40.5t-140 38.5t-54 100.5q0 65 52.5 104.5t141.5 40.5zM124 1495q89 0 142 -37.5t53 -100.5
q0 -65 -54 -105.5t-140 -40.5t-140 38.5t-54 100.5q0 65 52.5 104.5t140.5 40.5z" />
    <glyph glyph-name="ntilde" unicode="&#xf1;" horiz-adv-x="1544" 
d="M628 1092v-139q117 83 229 124.5t218 41.5q142 0 240 -65q74 -49 99.5 -121.5t25.5 -236.5l-2 -463l3 -233h-509l4 278l3 204l-1 308q-1 107 -2.5 127.5t-9.5 36.5q-16 32 -69 32q-49 0 -106 -28t-123 -84l-1 -41l-2 -281l-2 -215l3 -294l1 -43h-511l3 392l3 259l-3 224
l-3 217h512zM649 1509l427 -101l84 75q22 20 34 20q11 0 21 -9.5t10 -20.5q0 -10 -23 -32l-252 -242l-436 102l-87 -78q-21 -19 -37 -19q-11 0 -20.5 9.5t-9.5 19.5q0 15 23 36z" />
    <glyph glyph-name="oacute" unicode="&#xf3;" horiz-adv-x="1227" 
d="M616 1119q161 0 305 -89q133 -82 203 -224q62 -125 62 -265q0 -96 -36.5 -193t-99.5 -172q-88 -103 -215 -155q-104 -43 -217 -43q-189 0 -340 112q-118 86 -179 221q-51 114 -51 241q0 248 180 412q169 152 388 155zM587 1054l-3 -1008q31 -2 43 -2q139 0 266 78
q122 76 183 202q48 100 48 220q0 241 -178 391q-144 121 -313 121q-14 0 -46 -2zM457 1204l98 274h352l-216 -274h-234z" />
    <glyph glyph-name="ograve" unicode="&#xf2;" horiz-adv-x="1227" 
d="M616 1119q161 0 305 -89q133 -82 203 -224q62 -125 62 -265q0 -96 -36.5 -193t-99.5 -172q-88 -103 -215 -155q-104 -43 -217 -43q-189 0 -340 112q-118 86 -179 221q-51 114 -51 241q0 248 180 412q169 152 388 155zM587 1054l-3 -1008q31 -2 43 -2q139 0 266 78
q122 76 183 202q48 100 48 220q0 241 -178 391q-144 121 -313 121q-14 0 -46 -2zM764 1204h-234l-216 274h352z" />
    <glyph glyph-name="ocircumflex" unicode="&#xf4;" horiz-adv-x="1227" 
d="M616 1119q161 0 305 -89q133 -82 203 -224q62 -125 62 -265q0 -96 -36.5 -193t-99.5 -172q-88 -103 -215 -155q-104 -43 -217 -43q-189 0 -340 112q-118 86 -179 221q-51 114 -51 241q0 248 180 412q169 152 388 155zM587 1054l-3 -1008q31 -2 43 -2q139 0 266 78
q122 76 183 202q48 100 48 220q0 241 -178 391q-144 121 -313 121q-14 0 -46 -2zM1006 1213h-375l-145 209l-138 -164q-48 -57 -73 -57q-27 0 -27 27q0 11 32 51l19 21l157 182h343z" />
    <glyph glyph-name="odieresis" unicode="&#xf6;" horiz-adv-x="1227" 
d="M616 1119q161 0 305 -89q133 -82 203 -224q62 -125 62 -265q0 -96 -36.5 -193t-99.5 -172q-88 -103 -215 -155q-104 -43 -217 -43q-189 0 -340 112q-118 86 -179 221q-51 114 -51 241q0 248 180 412q169 152 388 155zM587 1054l-3 -1008q31 -2 43 -2q139 0 266 78
q122 76 183 202q48 100 48 220q0 241 -178 391q-144 121 -313 121q-14 0 -46 -2zM866 1495q88 0 141 -37.5t53 -100.5q0 -65 -54 -105.5t-140 -40.5t-140 38.5t-54 100.5q0 65 52.5 104.5t141.5 40.5zM367 1495q89 0 142 -37.5t53 -100.5q0 -65 -54 -105.5t-140 -40.5
t-140 38.5t-54 100.5q0 65 52.5 104.5t140.5 40.5z" />
    <glyph glyph-name="otilde" unicode="&#xf5;" horiz-adv-x="1227" 
d="M616 1119q161 0 305 -89q133 -82 203 -224q62 -125 62 -265q0 -96 -36.5 -193t-99.5 -172q-88 -103 -215 -155q-104 -43 -217 -43q-189 0 -340 112q-118 86 -179 221q-51 114 -51 241q0 248 180 412q169 152 388 155zM587 1054l-3 -1008q31 -2 43 -2q139 0 266 78
q122 76 183 202q48 100 48 220q0 241 -178 391q-144 121 -313 121q-14 0 -46 -2zM498 1509l427 -101l84 75q22 20 34 20q11 0 21 -9.5t10 -20.5q0 -10 -23 -32l-252 -242l-436 102l-87 -78q-21 -19 -37 -19q-11 0 -20.5 9.5t-9.5 19.5q0 15 23 36z" />
    <glyph glyph-name="uacute" unicode="&#xfa;" horiz-adv-x="1546" 
d="M1430 1092l-3 -786l3 -306h-511v141q-127 -87 -231.5 -125t-218.5 -38q-209 0 -303 124q-35 46 -48.5 104.5t-13.5 166.5l2 234l1 156l-5 329h511l-5 -502l1 -190l1 -128q0 -115 14 -138q17 -26 64 -26q48 0 99.5 25t133.5 89l1 131l2 357l-6 351v31h512zM616 1204
l98 274h352l-216 -274h-234z" />
    <glyph glyph-name="ugrave" unicode="&#xf9;" horiz-adv-x="1546" 
d="M1430 1092l-3 -786l3 -306h-511v141q-127 -87 -231.5 -125t-218.5 -38q-209 0 -303 124q-35 46 -48.5 104.5t-13.5 166.5l2 234l1 156l-5 329h511l-5 -502l1 -190l1 -128q0 -115 14 -138q17 -26 64 -26q48 0 99.5 25t133.5 89l1 131l2 357l-6 351v31h512zM923 1204h-234
l-216 274h352z" />
    <glyph glyph-name="ucircumflex" unicode="&#xfb;" horiz-adv-x="1546" 
d="M1430 1092l-3 -786l3 -306h-511v141q-127 -87 -231.5 -125t-218.5 -38q-209 0 -303 124q-35 46 -48.5 104.5t-13.5 166.5l2 234l1 156l-5 329h511l-5 -502l1 -190l1 -128q0 -115 14 -138q17 -26 64 -26q48 0 99.5 25t133.5 89l1 131l2 357l-6 351v31h512zM1152 1213h-375
l-145 209l-138 -164q-48 -57 -73 -57q-27 0 -27 27q0 11 32 51l19 21l157 182h343z" />
    <glyph glyph-name="udieresis" unicode="&#xfc;" horiz-adv-x="1546" 
d="M1430 1092l-3 -786l3 -306h-511v141q-127 -87 -231.5 -125t-218.5 -38q-209 0 -303 124q-35 46 -48.5 104.5t-13.5 166.5l2 234l1 156l-5 329h511l-5 -502l1 -190l1 -128q0 -115 14 -138q17 -26 64 -26q48 0 99.5 25t133.5 89l1 131l2 357l-6 351v31h512zM1015 1495
q88 0 141 -37.5t53 -100.5q0 -65 -54 -105.5t-140 -40.5t-140 38.5t-54 100.5q0 65 52.5 104.5t141.5 40.5zM516 1495q89 0 142 -37.5t53 -100.5q0 -65 -54 -105.5t-140 -40.5t-140 38.5t-54 100.5q0 65 52.5 104.5t140.5 40.5z" />
    <glyph glyph-name="dagger" unicode="&#x2020;" 
d="M379 -91l1 80l6 645l-2 350l-150 -2h-74q-64 0 -64 36q0 39 62 39l72 -1l153 -2l-1 127l-2 184h565l1 -51l-2 -133l-2 -127l153 2l72 1q62 0 62 -39q0 -36 -64 -36h-74l-150 2l-1 -164v-186l5 -645l1 -80h-567z" />
    <glyph glyph-name="degree" unicode="&#xb0;" horiz-adv-x="645" 
d="M326 1365q112 0 192 -77t80 -187q0 -109 -80 -186q-79 -78 -191 -78q-114 0 -194 78q-79 77 -79 189q0 108 80 184t192 77zM326 1315q-90 0 -155 -63q-63 -62 -63 -148q0 -92 63 -154q65 -63 156 -63q89 0 154 63q63 63 63 151q0 90 -63 151q-65 62 -155 63z" />
    <glyph glyph-name="cent" unicode="&#xa2;" 
d="M670 164v-34l1 -15q5 -45 20 -60t57 -15q111 0 234 73q107 64 184 194q22 37 43 37q15 0 27.5 -13.5t12.5 -28.5q0 -36 -58 -101.5t-135 -117.5q-156 -105 -340 -105q-10 0 -21.5 0.5t-24.5 1.5v-90q0 -9 -1 -27v-32l2 -28q1 -14 1 -28q0 -55 -39 -55q-38 0 -38 41l1 51
l-1 52l1 55v70q-115 15 -222 92q-111 80 -175 199q-66 125 -66 269q0 207 129 363t333 196v142q0 93 5 107q7 22 30 22q36 0 39 -46q2 -39 1 -153v-62l48 1q192 0 333 -89q60 -38 98 -81.5t38 -73.5q0 -14 -11.5 -25t-26.5 -11q-21 0 -53 48q-46 67 -145 116.5t-187 49.5
q-59 0 -76 -32.5t-17 -145.5v-667z" />
    <glyph glyph-name="sterling" unicode="&#xa3;" 
d="M746 726h297q63 0 73 -1q42 -6 42 -38q0 -39 -62 -39l-71 1h-120l-153 2q9 -151 9 -209q0 -134 -31 -204.5t-111 -118.5q-95 -56 -208 -65q108 -32 211 -74q87 -37 129.5 -47.5t100.5 -10.5q142 0 247 70q104 69 122 177q9 51 46 51t37 -41q0 -44 -27 -96.5t-72 -95.5
q-138 -133 -349 -133q-64 0 -121 14.5t-163 58.5q-194 80 -279 80q-49 0 -139 -35q-17 -6 -36 -6q-41 0 -41 35q0 31 45 48q13 5 65 17q57 13 79 57q22 43 22 142q0 96 -17 311l-6 75h-81l-41 -1q-68 0 -68 41q0 37 60 37l35 -1l89 -1l-4 141q0 274 127 395q134 129 365 129
q208 0 362 -112q85 -62 85 -100q0 -13 -12 -25t-25 -12q-21 0 -59 41q-69 76 -170 76t-146 -69t-45 -225l8 -218z" />
    <glyph glyph-name="section" unicode="&#xa7;" 
d="M993 432q80 -36 124.5 -100t44.5 -144q0 -113 -82 -195q-123 -125 -395 -125q-238 0 -412 82q-91 42 -91 88q0 15 11 27.5t25 12.5q17 0 82 -49q58 -44 166 -70t232 -26q157 0 237 49q47 28 47 67q0 46 -66 69q-20 8 -162 36q-220 43 -301.5 63.5t-150.5 50.5
q-186 80 -186 250q0 214 214 324q-87 39 -126.5 95t-39.5 140q0 171 164 264q114 65 304 65q164 0 290.5 -36.5t126.5 -84.5q0 -39 -37 -39q-18 0 -83 37q-46 26 -136 42.5t-186 16.5q-116 0 -188 -33q-68 -30 -68 -83q0 -56 91 -84q70 -22 323 -73q152 -30 238.5 -67.5
t136.5 -93.5q68 -76 68 -191q0 -93 -46.5 -154.5t-168.5 -130.5zM394 816q-115 -55 -115 -130q0 -85 129 -119l352 -79l169 -37q62 36 92.5 71.5t30.5 71.5q0 63 -97 89q-75 21 -248 57q-185 38 -313 76z" />
    <glyph glyph-name="bullet" unicode="&#x2022;" horiz-adv-x="1365" 
d="M689 978q113 0 196 -83q84 -83 84 -201t-84 -201q-82 -83 -200 -83t-200 83q-84 83 -84 200q0 121 84 202q84 83 204 83z" />
    <glyph glyph-name="paragraph" unicode="&#xb6;" 
d="M575 -210v846h-33q-120 0 -213 54q-79 46 -124.5 127.5t-45.5 179.5q0 99 46.5 183t126.5 129q98 56 265 56h464v-62h-106v-1513h-69v1513h-242v-1513h-69z" />
    <glyph glyph-name="germandbls" unicode="&#xdf;" horiz-adv-x="1465" 
d="M1229 600q79 -47 118 -111t39 -145q0 -141 -93 -243q-103 -112 -266 -112q-157 0 -242 124q-36 53 -36 94q0 34 38 34q21 0 29 -11t32 -71q20 -48 68 -76t114 -28q130 0 213 94q73 81 73 194q0 77 -45 138t-123 91q-58 -12 -101 -12q-158 0 -158 86q0 22 16 22
q10 0 27 -10q54 -32 130 -32q100 0 180 57q116 81 116 235q0 155 -117 260q-107 97 -248 97q-132 0 -211 -76q-38 -37 -53.5 -90t-15.5 -145l2 -198l3 -277q0 -152 -8 -248.5t-32 -240.5h-599q47 270 44 545q1 251 6 343t22 153q49 172 201 255.5t416 83.5q357 0 526 -157
q130 -122 130 -300q0 -112 -47 -190.5t-148 -132.5z" />
    <glyph glyph-name="registered" unicode="&#xae;" horiz-adv-x="1632" 
d="M825 1387q189 0 359 -104t259 -281q77 -151 77 -320q0 -197 -104 -367q-103 -169 -280 -259q-151 -77 -320 -77q-198 0 -367 103q-169 104 -260 281q-77 151 -77 318q0 199 104 370q101 168 281 260q149 76 328 76zM824 1341q-277 0 -469 -192q-92 -92 -142 -215
q-50 -121 -50 -253q0 -185 97 -343q96 -158 260 -242q139 -72 296 -72q184 0 341 97t241 262q71 141 71 299q0 186 -96 345q-94 156 -261 243q-130 67 -288 71zM969 401q136 -78 266 -97q25 -5 25 -25q0 -26 -37 -26q-70 0 -180.5 50t-232.5 138v-10l1 -101v-64h-404l1 33
l3 423l-2 363h265q174 0 261.5 -9t151.5 -33q103 -40 163 -131q56 -84 56 -177q0 -131 -96 -226.5t-241 -107.5zM889 450q19 -1 28 -1q130 0 218 66q54 40 84.5 99t30.5 122q0 129 -106 213q-54 43 -128.5 61.5t-200.5 19.5l-6 -496l1 -24q37 -33 79 -60z" />
    <glyph glyph-name="copyright" unicode="&#xa9;" horiz-adv-x="1632" 
d="M825 1387q189 0 359 -104t259 -281q77 -151 77 -320q0 -197 -104 -367q-103 -169 -280 -259q-151 -77 -320 -77q-198 0 -367 103q-169 104 -260 281q-77 151 -77 318q0 199 104 370q101 168 281 260q149 76 328 76zM824 1341q-277 0 -469 -192q-92 -92 -142 -215
q-50 -121 -50 -253q0 -185 97 -343q96 -158 260 -242q139 -72 296 -72q184 0 341 97t241 262q71 141 71 299q0 186 -96 345q-94 156 -261 243q-130 67 -288 71zM794 1063l-3 -402l3 -360q23 -3 45 -3q115 0 210 54.5t156 155.5q15 25 32 25q28 0 28 -23q0 -20 -31.5 -63
t-71.5 -78q-136 -120 -325 -120q-181 0 -319 116q-71 60 -111 144t-40 174q0 96 44.5 184t124.5 149q131 100 300 100q188 0 324 -117q66 -57 66 -84q0 -9 -8.5 -16.5t-18.5 -7.5q-16 0 -36 25q-122 150 -332 150q-21 0 -37 -3z" />
    <glyph glyph-name="trademark" unicode="&#x2122;" horiz-adv-x="2143" 
d="M661 1312l-3 -178l-2 -175l2 -413h-404l4 477l-2 160l-2 129l-78 -2l-121 -3h-17q-38 0 -38 28q0 18 10.5 23.5t45.5 6.5h785q44 0 56.5 -5.5t12.5 -24.5q0 -27 -39 -27l-56 1l-82 2zM1862 1401l144 -453l63 -194l57 -177l11 -31h-404l-121 409l-261 -363l-269 345
q-36 -118 -81 -300q-16 -72 -25 -87t-36 -15q-34 0 -34 25q0 6 18 61l40 126l69 217l138 437l354 -471z" />
    <glyph glyph-name="acute" unicode="&#xb4;" horiz-adv-x="1024" 
d="M355 1204l98 274h352l-216 -274h-234z" />
    <glyph glyph-name="dieresis" unicode="&#xa8;" horiz-adv-x="1024" 
d="M761 1495q88 0 141 -37.5t53 -100.5q0 -65 -54 -105.5t-140 -40.5t-140 38.5t-54 100.5q0 65 52.5 104.5t141.5 40.5zM262 1495q89 0 142 -37.5t53 -100.5q0 -65 -54 -105.5t-140 -40.5t-140 38.5t-54 100.5q0 65 52.5 104.5t140.5 40.5z" />
    <glyph glyph-name="notequal" unicode="&#x2260;" 
d="M545 506l-105 -2l-104 -1l-51 -1h-51l-75 -1q-63 0 -63 39q0 41 63 41l71 -2l246 -4h102l13 28l71 153l11 24h-10l-327 -3l-102 -1l-75 -1q-63 0 -63 38q0 41 63 41l71 -2l340 -5l93 1h41l26 58l26 57l52 115q39 87 49 102.5t31 15.5q31 0 31 -35q0 -20 -44 -108
l-47 -102l-48 -103h85l230 4l71 2q63 0 63 -41q0 -38 -63 -38l-126 1l-51 1l-120 1l-121 1l-28 -60l-67 -144h153l289 4l71 2q63 0 63 -41q0 -39 -63 -39l-126 2h-51l-326 4l-41 -1l-26 -57l-27 -58l-53 -116q-40 -85 -49.5 -99.5t-26.5 -14.5q-14 0 -24.5 11t-10.5 27
q0 18 43 104l72 152z" />
    <glyph glyph-name="AE" unicode="&#xc6;" horiz-adv-x="2357" 
d="M1703 921l-2 -270l6 -586l374 4h70l90 2l59 2q53 0 53 -36q0 -24 -15 -30.5t-70 -6.5h-1171v264l-234 2l-249 2l-328 -2l-105 -134q-74 -95 -103.5 -123t-54.5 -28q-38 0 -38 27q0 15 43 66l284 343l289 346l500 602h1096q50 -1 61.5 -6.5t11.5 -28.5q0 -39 -44 -39
q-11 0 -34 2l-316 6h-173v-314h156l290 4l123 2q47 0 47 -34q0 -40 -56 -40l-15 1h-121l-267 3h-157zM1098 1256l-749 -912q79 -6 441 -8q254 3 307 8l5 456z" />
    <glyph glyph-name="Oslash" unicode="&#xd8;" horiz-adv-x="1550" 
d="M1251 1230q251 -229 251 -548q0 -270 -180 -477q-100 -115 -242 -179q-146 -67 -302 -67q-240 0 -454 156l-78 -95q-30 -37 -41 -46.5t-24 -9.5q-38 0 -38 38q0 11 6 20.5t43 56.5l74 91q-211 222 -211 515q0 313 225 525q209 196 496 196q226 0 409 -124l60 73
q32 39 46 50.5t29 11.5t27.5 -11.5t12.5 -25.5q0 -11 -6.5 -21t-47.5 -59zM1210 1183l-512 -665v-492q39 -6 78 -6q192 0 358 106q162 103 243 279q62 132 62 276q0 290 -229 502zM1143 1232q-165 112 -367 112q-39 0 -78 -6v-694z" />
    <glyph glyph-name="infinity" unicode="&#x221e;" horiz-adv-x="1365" 
d="M568 459q-79 -95 -142 -133t-144 -38q-149 0 -242 114q-84 103 -84 265q0 207 127 339q107 110 272 110q114 0 200 -54.5t160 -172.5q45 110 129 171t192 61q183 0 289 -141q84 -111 84 -284q0 -211 -132 -336q-59 -56 -142.5 -88.5t-168.5 -32.5q-233 0 -398 220z
M773 809q175 -304 383 -304q78 0 129 50q58 56 58 138q0 85 -74.5 127.5t-224.5 42.5q-146 0 -210 -28zM493 564q-84 153 -157 218t-161 65q-77 0 -117 -54q-38 -51 -38 -117q0 -68 67.5 -102.5t202.5 -34.5q80 0 142 13q47 10 61 12z" />
    <glyph glyph-name="plusminus" unicode="&#xb1;" 
d="M890 753l-1 -44l2 -119l4 -174h-461l4 174l2 119l-1 44h-90l-187 -1q-64 -1 -64 39t64 40l89 -1h188l1 44l-2 119l-4 174h461l-4 -174l-2 -119l1 -44h207l73 2q56 0 56 -40t-56 -40l-87 2l-58 -1h-135zM1040 229l-807 -4h-74q-64 0 -64 36q0 39 63 39l71 -2l307 -3l549 5
l79 1q64 0 64 -38q0 -37 -67 -37z" />
    <glyph glyph-name="lessequal" unicode="&#x2264;" horiz-adv-x="1024" 
d="M950 1341v-167l-424 -259l424 -294v-444l-875 607v20zM75 147h875v-147h-875v147z" />
    <glyph glyph-name="greaterequal" unicode="&#x2265;" horiz-adv-x="1024" 
d="M75 147h875v-147h-875v147zM75 177v167l424 259l-424 294v444l875 -619v-21z" />
    <glyph glyph-name="yen" unicode="&#xa5;" 
d="M998 718h194q68 0 68 -38q0 -36 -66 -36h-213q0 -29 -1 -46l-1 -46v-108h213q68 0 68 -38q0 -36 -66 -36h-214l7 -350v-20h-550v33l6 304v33h-249q-67 0 -67 36q0 38 68 38h248l1 27v83l1 44v46h-251q-67 0 -67 36q0 38 68 38h234q-24 44 -54 91q-167 265 -372 556h621
l334 -589l273 523q29 61 38.5 73t26.5 12t28.5 -10t11.5 -24q0 -15 -11 -35q-7 -15 -17 -31l-29 -47z" />
    <glyph glyph-name="mu" unicode="&#xb5;" horiz-adv-x="1546" 
d="M485 87l49 -133h-432l3 358l1 168l1 245l-5 367h511l-5 -447l1 -136l1 -128q0 -115 15 -138q17 -26 63 -26q48 0 99.5 25t133.5 89l2 434l-3 179l-2 118v30h512l-3 -786l3 -306h-511v250q-226 -157 -434 -163z" />
    <glyph glyph-name="partialdiff" unicode="&#x2202;" horiz-adv-x="1024" 
d="M259 1408l20 38q194 -61 354 -197q122 -103 195 -222q162 -265 162 -557q0 -263 -178 -408q-119 -96 -300 -96q-184 0 -305 103q-173 146 -173 402q0 265 176 400q122 94 309 94q15 0 60 -4q25 0 44 -5q-124 299 -364 452zM513 892q-72 0 -97 -62t-25 -238
q0 -357 21.5 -455t100.5 -98q77 0 98.5 86.5t21.5 397.5q0 229 -22.5 298t-97.5 71z" />
    <glyph glyph-name="summation" unicode="&#x2211;" horiz-adv-x="1365" 
d="M49 1365h1201v-389h-47q-16 144 -94.5 224t-203.5 80h-395l369 -643l-529 -890h526q110 0 175 27q187 82 237 314h46l-68 -566h-1217l544 914z" />
    <glyph glyph-name="product" unicode="&#x220f;" horiz-adv-x="1365" 
d="M-144 1365h1654v-45h-46q-77 0 -106.5 -35.5t-29.5 -127.5v-1426q0 -91 28.5 -127t102.5 -36h49v-46h-795v46h44q78 0 107.5 35t29.5 128v1426q0 92 -29.5 127.5t-107.5 35.5h-145q-77 0 -106.5 -35.5t-29.5 -127.5v-1426q0 -91 29 -127t102 -36h49v-46h-794v46h44
q77 0 106.5 35.5t29.5 127.5v1426q0 92 -29.5 127.5t-106.5 35.5h-50v45z" />
    <glyph glyph-name="pi" unicode="&#x3c0;" horiz-adv-x="1024" 
d="M1153 990v-222h-205q-15 -40 -19.5 -68t-4.5 -82v-310q0 -110 19 -146t77 -36q24 0 75 6v-48l-395 -107q-23 -6 -29 -6q-22 0 -55.5 30.5t-54.5 70.5q-25 47 -25 130v290q0 127 91 219q25 22 61 38q15 7 38 19h-310l-9 -163q-10 -184 -36.5 -343.5t-56.5 -218.5
q-23 -45 -74 -72t-112 -27q-79 0 -124 38q-43 36 -43 102q0 69 54 120q7 7 45 29q55 31 82.5 83t45.5 158q27 160 32 293q-118 -14 -162.5 -36.5t-113.5 -102.5l-45 38l106 204q33 63 87.5 91.5t142.5 28.5h918z" />
    <glyph glyph-name="integral" unicode="&#x222b;" horiz-adv-x="1024" 
d="M729 1219v-1270q0 -130 -5 -162q-22 -144 -161 -225q-120 -70 -321 -70q-187 0 -300 65q-59 34 -92.5 89.5t-33.5 118.5q0 83 56.5 139.5t138.5 56.5q77 0 134 -55q56 -53 56 -120q0 -36 -12 -59t-53 -66q-16 -17 -16 -35q0 -26 26.5 -45.5t61.5 -19.5q51 0 74 38
q13 22 13 100v1380q0 142 5 174q23 144 161 225q120 70 321 70q186 0 300 -66q59 -33 92.5 -88.5t33.5 -118.5q0 -83 -56.5 -139.5t-138.5 -56.5q-77 0 -134 54q-56 54 -56 120q0 36 12 59.5t53 65.5q16 18 16 35q0 26 -27 45.5t-62 19.5q-88 0 -88 -105l1 -72z" />
    <glyph glyph-name="ordfeminine" unicode="&#xaa;" horiz-adv-x="878" 
d="M489 1182v50q-1 88 -11 102q-17 25 -86 25q-109 0 -169 -63q-27 -28 -47 -28q-15 0 -26.5 10t-11.5 24q0 36 87 71q78 33 204 33q207 0 292 -58q38 -26 49.5 -58t11.5 -111v-200q-2 -58 4 -84t31 -65h-328v47q-50 -29 -98 -43.5t-93 -14.5q-84 0 -150 45q-86 59 -86 154
q0 84 69 136q81 60 199 60q81 0 159 -32zM490 1130q-66 30 -100 30q-28 0 -34 -14t-7 -75v-120q1 -45 5.5 -54.5t27.5 -9.5q26 0 40 6t68 40v197zM645 614l-130 -1h-119l-113 -2l-164 -2h-10q-50 0 -50 28q0 30 43 30l64 -1l205 -1l257 2l127 2h10q49 0 49 -30
q0 -27 -54 -27l-66 1q-18 1 -49 1z" />
    <glyph glyph-name="ordmasculine" unicode="&#xba;" horiz-adv-x="878" 
d="M437 1406q138 0 232 -90q89 -84 89 -207q0 -106 -77 -188q-95 -102 -242 -102q-153 0 -248 106q-72 82 -72 189q0 128 102 212q94 78 216 80zM428 1360v-494h18q109 0 186.5 71.5t77.5 172.5q0 117 -95 191q-77 59 -168 59h-19zM616 614l-110 -1h-102l-95 -2l-139 -2h-9
q-42 0 -42 28q0 30 37 30l54 -1l174 -1l218 2l107 2h9q41 0 41 -30q0 -27 -46 -27l-56 1q-15 1 -41 1z" />
    <glyph glyph-name="Omega" unicode="&#x2126;" horiz-adv-x="1365" 
d="M1481 374l-77 -374h-639v220q93 75 133 157q74 149 74 411q0 225 -59 345q-77 159 -230 159q-162 0 -237 -181q-51 -124 -51 -338q0 -273 89 -426q38 -65 118 -127v-220h-643l-76 374h49q28 -94 95 -126q44 -21 121 -23q51 -1 62 -2l234 -20v20q-113 32 -176 60.5
t-124 73.5q-226 170 -226 435q0 194 127 345q210 250 633 250q404 0 607 -209q164 -170 164 -386q0 -223 -150 -372q-69 -70 -148.5 -111.5t-227.5 -85.5v-20l272 23q83 3 111 9.5t56 26.5q43 32 70 112h49z" />
    <glyph glyph-name="ae" unicode="&#xe6;" horiz-adv-x="2012" 
d="M1296 511v-277q1 -123 13 -147q21 -45 99 -45q142 0 276 92q57 40 89 71t79 95q25 35 49 35q15 0 27.5 -13t12.5 -29q0 -30 -37 -76t-98 -93q-192 -146 -412 -146q-35 0 -73.5 5.5t-81.5 16.5h-416v107q-83 -64 -172.5 -96.5t-184.5 -32.5q-157 0 -274 94
q-144 116 -144 289q0 178 152 282q136 93 325 93q156 0 300 -72v165q-3 103 -6.5 125.5t-18.5 42.5q-40 51 -161 51q-208 0 -313 -120q-33 -37 -49 -48.5t-36 -11.5q-22 0 -38.5 16t-16.5 37q0 47 90 102q84 52 182.5 74t245.5 22q127 0 233.5 -16.5t192.5 -49.5
q70 33 137 49.5t132 16.5q143 0 271.5 -68.5t205.5 -185.5q96 -145 96 -331v-22l-262 2h-54l-225 -2zM1552 578v201q0 180 -4 205q-11 74 -131 74q-52 0 -81.5 -20t-35.5 -60q-3 -19 -3 -183v-217q36 -4 80 -4q125 0 175 4zM824 590q-115 65 -190 65q-71 0 -84 -61
q-5 -22 -6 -159v-227q0 -69 9 -89q16 -35 64 -35q38 0 89 25t116 74z" />
    <glyph glyph-name="oslash" unicode="&#xf8;" horiz-adv-x="1228" 
d="M1043 928q143 -168 143 -381q0 -221 -144 -381q-83 -91 -196 -140q-109 -48 -230 -48q-206 0 -380 147l-108 -107q-45 -42 -60 -42q-12 0 -22 10t-10 21q0 12 20 32q5 4 9 8q10 9 23 22l103 103q-143 166 -143 377q0 156 80 291q80 137 223 212q128 67 267 67
q205 0 381 -146l102 104q40 41 57 41q29 0 29 -30q0 -15 -42 -57zM999 885l-412 -467v-372q34 -2 48 -2q131 0 253 74q123 75 187 206q52 107 52 224q0 185 -128 337zM954 930q-147 130 -367 126v-542z" />
    <glyph glyph-name="questiondown" unicode="&#xbf;" horiz-adv-x="1133" 
d="M578 462v91h67l-3 -801q143 8 246 93q86 72 86 160q0 18 -4 38q-6 28 -6 40q0 14 12 24.5t29 10.5q23 0 38 -24t15 -60q0 -72 -46 -144.5t-123 -123.5q-127 -84 -326 -84q-256 0 -392 135q-103 103 -103 258q0 134 83 232q68 80 160 113.5t267 41.5zM611 1119
q132 0 215.5 -60.5t83.5 -156.5q0 -99 -75 -159q-85 -68 -220 -68q-131 0 -213.5 62t-82.5 161q0 88 65 147q80 73 227 74z" />
    <glyph glyph-name="exclamdown" unicode="&#xa1;" horiz-adv-x="786" 
d="M371 536h63q19 -102 43 -151t146 -233q75 -113 75 -216q0 -116 -78 -180q-89 -74 -228 -74q-143 0 -231 83q-72 68 -72 172q0 58 19 108t70 126q96 142 131.5 209t61.5 156zM387 1119q134 0 219 -61.5t85 -158.5q0 -101 -82 -163q-81 -62 -205 -62q-134 0 -219.5 63
t-85.5 162q0 98 78.5 158.5t209.5 61.5z" />
    <glyph glyph-name="logicalnot" unicode="&#xac;" horiz-adv-x="1024" 
d="M542 0v365h-490v182h919v-547h-429z" />
    <glyph glyph-name="radical" unicode="&#x221a;" horiz-adv-x="1365" 
d="M1331 1686v-93h-211l-379 -1593h-361l-170 700h-176v93h468l161 -690l372 1583h296z" />
    <glyph glyph-name="florin" unicode="&#x192;" 
d="M944 895l136 2l87 1q71 0 71 -38q0 -36 -71 -36l-100 1h-132l-78 -633q-17 -133 -83 -208q-63 -71 -150.5 -102t-223.5 -31q-139 0 -236 37t-97 90q0 36 42 36q18 0 57 -33q46 -38 92 -38q54 0 78 47q15 29 32 175l76 660l-53 -1l-132 -2q-42 0 -57.5 7.5t-15.5 27.5
q0 40 72 40l76 -1l118 -1l22 183q16 140 133 221q130 90 348 90q129 0 215.5 -33.5t86.5 -84.5q0 -38 -40 -38q-22 0 -63 41q-22 22 -62 22q-52 0 -79.5 -36t-37.5 -117z" />
    <glyph glyph-name="approxequal" unicode="&#x2248;" horiz-adv-x="1024" 
d="M912 1087l72 -36q-53 -88 -142 -175q-42 -41 -85 -57.5t-110 -16.5q-61 0 -225 54q-75 24 -143 24t-113 -31q-10 -6 -34 -26q-7 -7 -22 -19l-69 35q88 136 149 185q83 66 172 66q57 0 189 -39q137 -41 197 -41q85 0 164 77zM912 728l72 -36q-53 -89 -142 -175
q-43 -41 -85.5 -57.5t-109.5 -16.5q-61 0 -225 53q-75 24 -144 24q-67 0 -112 -30l-34 -27l-22 -18l-69 35q89 136 149 184q83 66 172 66q57 0 189 -38q137 -40 197 -40q84 0 164 76z" />
    <glyph glyph-name="Delta" unicode="&#x2206;" horiz-adv-x="1365" 
d="M798 1384l625 -1384h-1482l618 1384h239zM547 1028l-303 -695q-21 -48 -21 -68q0 -25 21.5 -33t88.5 -8h551z" />
    <glyph glyph-name="guillemotleft" unicode="&#xab;" horiz-adv-x="716" 
d="M404 377v377l159 159q13 12 16 16q23 24 33 24q14 0 14 -36q0 -27 -10 -40q-4 -6 -16 -17q-11 -10 -16 -15l-132 -133l175 -163v-380zM86 377v377l159 159q13 12 16 16q23 24 33 24q14 0 14 -36q0 -27 -10 -40q-4 -6 -16 -17q-11 -11 -16 -15l-132 -133l175 -163v-380z
" />
    <glyph glyph-name="guillemotright" unicode="&#xbb;" horiz-adv-x="716" 
d="M312 745v-378l-159 -159q-40 -39 -49 -39q-14 -1 -14 35q0 28 10 41q4 6 16 17q12 10 16 14l132 133l-175 164v380zM630 745v-378l-159 -159q-40 -39 -49 -39q-14 -1 -14 35q0 27 10 41q4 6 16 17q12 10 16 14l132 133l-175 164v380z" />
    <glyph glyph-name="ellipsis" unicode="&#x2026;" horiz-adv-x="2312" 
d="M386 414q133 0 214 -59t81 -158q0 -101 -82 -164.5t-213 -63.5q-165 0 -247 92q-48 54 -48 126q0 102 80 163.5t215 63.5zM1157 414q133 0 214 -59t81 -158q0 -101 -82 -164.5t-213 -63.5q-165 0 -247 92q-48 54 -48 126q0 102 80 163.5t215 63.5zM1926 414
q134 0 215 -59t81 -158q0 -101 -82 -164.5t-213 -63.5q-165 0 -247 92q-48 54 -48 126q0 102 80 163.5t214 63.5z" />
    <glyph glyph-name="Agrave" unicode="&#xc0;" horiz-adv-x="1599" 
d="M825 1447l800 -1447h-693l-95 183h-336l-296 1l-50 1l-66 -122q-29 -55 -40.5 -68.5t-28.5 -13.5q-34 0 -34 30q0 13 19.5 48.5t136.5 233.5l605 1019zM514 792l-175 -295l-140 -243l300 -4l301 3zM959 1476h-234l-216 274h352z" />
    <glyph glyph-name="Atilde" unicode="&#xc3;" horiz-adv-x="1599" 
d="M825 1447l800 -1447h-693l-95 183h-336l-296 1l-50 1l-66 -122q-29 -55 -40.5 -68.5t-28.5 -13.5q-34 0 -34 30q0 13 19.5 48.5t136.5 233.5l605 1019zM514 792l-175 -295l-140 -243l300 -4l301 3zM696 1772l427 -101l84 75q22 20 34 20q11 0 21 -9.5t10 -20.5
q0 -10 -23 -32l-252 -242l-436 102l-87 -78q-21 -19 -37 -19q-11 0 -20.5 9.5t-9.5 19.5q0 15 23 36z" />
    <glyph glyph-name="Otilde" unicode="&#xd5;" horiz-adv-x="1553" 
d="M780 1406q158 0 305 -67q216 -99 330 -305q91 -165 91 -359q0 -156 -69 -302q-103 -218 -321 -331q-160 -83 -336 -83q-186 0 -352 94q-221 124 -315 348q-58 137 -58 283q0 183 91 349q112 204 327 305q143 67 307 68zM701 1339l-6 -651l5 -541l1 -122q34 -6 65 -6
q221 0 395 122q159 112 230 288q50 123 50 255q0 174 -84 324q-103 184 -290 271q-140 66 -295 66q-36 0 -71 -6zM661 1771l427 -101l84 75q22 20 34 20q11 0 21 -9.5t10 -20.5q0 -10 -23 -32l-252 -242l-436 102l-87 -78q-21 -19 -37 -19q-11 0 -20.5 9.5t-9.5 19.5
q0 15 23 36z" />
    <glyph glyph-name="OE" unicode="&#x152;" horiz-adv-x="2269" 
d="M1629 929l-3 -341l3 -523l499 5l77 2q60 0 60 -36q0 -37 -71 -37l-70 1h-1118q-77 -25 -119 -33t-103 -8q-308 0 -525 219q-105 105 -158 247q-46 124 -46 257q0 216 116 396q115 179 313 266q141 62 285 62q61 0 122 -10t122 -31h1079q63 0 76.5 -5.5t13.5 -29.5
q0 -37 -50 -37l-42 1l-460 8v-309l479 4l40 1q55 -1 64 -3q19 -6 19 -30q0 -31 -34 -37q-11 -2 -87 -2zM1027 1295q-75 24 -139.5 35.5t-117.5 11.5q-38 0 -78 -5l-1 -79l-4 -535l4 -625l1 -68q34 -9 73 -9q79 0 144.5 14.5t117.5 42.5l5 398l1 189l-5 575z" />
    <glyph glyph-name="oe" unicode="&#x153;" horiz-adv-x="1930" 
d="M1216 518v-296q1 -95 7 -118q17 -58 104 -58q121 0 240 71q123 72 195 180q30 45 53 45q17 0 29.5 -13t12.5 -30q0 -63 -130 -163q-96 -75 -204.5 -116.5t-205.5 -41.5q-94 0 -185.5 34t-159.5 95q-174 -129 -354 -129q-144 0 -284 82q-142 83 -219 232q-67 130 -67 265
q0 167 98 311q85 126 224 193q119 58 246 58q181 0 349 -123q75 62 165.5 92.5t196.5 30.5q161 0 299 -88q148 -93 218 -262q45 -110 45 -222l-1 -23zM1468 583v337q0 59 -3 75t-17 33q-31 34 -109 34q-74 0 -98.5 -27.5t-24.5 -110.5v-341l114 -1l119 2zM921 142
q-173 181 -173 413q0 137 74 274q46 84 97 128q-73 53 -142.5 77t-152.5 24h-39v-1020q30 -2 44 -2q144 0 292 106z" />
    <glyph glyph-name="endash" unicode="&#x2013;" horiz-adv-x="1326" 
d="M1141 527l-1002 -4h-74q-64 0 -64 36q0 39 63 39l71 -2l355 -4l693 6l79 1q64 0 64 -38q0 -37 -67 -37z" />
    <glyph glyph-name="emdash" unicode="&#x2014;" horiz-adv-x="2147" 
d="M1965 527l-1827 -4h-74q-64 0 -64 36q0 39 63 39l71 -1l515 -5l1356 6l79 1q64 0 64 -38q0 -37 -67 -37z" />
    <glyph glyph-name="quotedblleft" unicode="&#x201c;" horiz-adv-x="1480" 
d="M147 1116q49 65 121.5 97t167.5 32q103 0 180 -48q93 -57 93 -163q0 -84 -60 -145q-94 -96 -248 -96q-142 0 -228 80q-84 78 -84 211q0 85 36 158t101 116q95 65 261 65q74 0 74 -30q0 -27 -37 -25l-52 2q-105 0 -175 -31q-90 -39 -129 -134q-10 -23 -21 -89zM830 1116
q49 65 121.5 97t167.5 32q103 0 180 -48q93 -57 93 -163q0 -84 -60 -145q-94 -96 -248 -96q-142 0 -229 80q-83 78 -83 211q0 85 36 158t100 116q95 65 261 65q74 0 74 -30q0 -27 -37 -25l-52 2q-105 0 -174 -31q-90 -39 -129 -134q-10 -23 -21 -89z" />
    <glyph glyph-name="quotedblright" unicode="&#x201d;" horiz-adv-x="1480" 
d="M651 1083q-49 -64 -121.5 -96.5t-167.5 -32.5q-104 0 -180 48q-93 57 -93 163q0 84 60 145q94 96 248 96q142 0 228 -80q84 -78 84 -211q0 -85 -36 -158t-101 -116q-95 -65 -261 -65q-74 0 -74 31q0 24 37 24l32 -1q10 -1 20 -1q105 0 175 31q90 39 129 134q10 23 21 89z
M1333 1083q-49 -64 -121.5 -96.5t-167.5 -32.5q-104 0 -180 48q-93 57 -93 163q0 84 60 145q94 96 248 96q142 0 228 -80q84 -78 84 -211q0 -85 -36 -158t-100 -116q-96 -65 -261 -65q-74 0 -74 31q0 24 37 24l32 -1q10 -1 20 -1q104 0 174 31q90 39 129 134q10 23 21 89z
" />
    <glyph glyph-name="quoteleft" unicode="&#x2018;" horiz-adv-x="797" 
d="M147 1116q49 65 121.5 97t167.5 32q103 0 180 -48q93 -57 93 -163q0 -84 -60 -145q-94 -96 -248 -96q-142 0 -228 80q-84 78 -84 211q0 85 36 158t101 116q95 65 261 65q74 0 74 -30q0 -27 -37 -25l-52 2q-105 0 -175 -31q-90 -39 -129 -134q-10 -23 -21 -89z" />
    <glyph glyph-name="quoteright" unicode="&#x2019;" horiz-adv-x="797" 
d="M651 1083q-49 -64 -121.5 -96.5t-168.5 -32.5q-103 0 -180 48q-93 57 -93 163q0 84 60 145q94 96 249 96q141 0 228 -80q84 -78 84 -211q0 -85 -36 -158t-101 -116q-95 -65 -261 -65q-74 0 -74 31q0 24 37 24l32 -1q10 -1 20 -1q105 0 175 31q89 39 129 134q9 23 21 89z
" />
    <glyph glyph-name="divide" unicode="&#xf7;" 
d="M662 1099q89 0 142 -38t53 -100q0 -65 -54 -105.5t-140 -40.5t-140 38.5t-54 100.5q0 65 52.5 104.5t140.5 40.5zM664 544q89 0 142 -38t53 -100q0 -65 -54 -105.5t-140 -40.5t-140 38.5t-54 100.5q0 65 52.5 104.5t140.5 40.5zM663 643l-327 -3l-51 -1l-126 -1
q-63 0 -63 38q0 41 63 41l71 -2l427 -4l438 4l71 2q63 0 63 -41q0 -38 -63 -38l-126 1l-51 1z" />
    <glyph glyph-name="lozenge" unicode="&#x25ca;" horiz-adv-x="1365" 
d="M683 1419l532 -736l-532 -736l-532 736zM683 1238l-404 -555l404 -555l403 555z" />
    <glyph glyph-name="ydieresis" unicode="&#xff;" horiz-adv-x="1236" 
d="M877 594q195 299 285 454q32 53 40 62t23 9q20 0 36 -15t16 -34q0 -15 -17 -36q-144 -196 -365 -532l-176 -269q-91 -138 -150 -199q-44 -43 -104.5 -70t-116.5 -27q-55 0 -90.5 21.5t-35.5 54.5q0 21 16 36t39 15q17 0 66 -23q32 -15 55 -15q45 0 85.5 27.5t88.5 90.5
l-118 185q-381 592 -509 763h636q60 -131 138 -262t158 -236zM915 1495q88 0 141 -37.5t53 -100.5q0 -65 -54 -105.5t-140 -40.5t-140 38.5t-54 100.5q0 65 52.5 104.5t141.5 40.5zM416 1495q89 0 142 -37.5t53 -100.5q0 -65 -54 -105.5t-140 -40.5t-140 38.5t-54 100.5
q0 65 52.5 104.5t140.5 40.5z" />
    <glyph glyph-name="Ydieresis" unicode="&#x178;" horiz-adv-x="1501" 
d="M1096 844l318 465q32 51 44 63t31 12q17 0 28.5 -9t11.5 -22t-12 -31q-8 -13 -20 -28l-32 -43l-813 -1143l-33 -45q-43 -60 -54.5 -71t-31.5 -11q-32 0 -32 28q0 15 29 49l228 310l-28 38l-429.5 570t-318.5 389h725zM1072 1767q88 0 141 -37.5t53 -100.5
q0 -65 -54 -105.5t-140 -40.5t-140 38.5t-54 100.5q0 65 52.5 104.5t141.5 40.5zM573 1767q89 0 142 -37.5t53 -100.5q0 -65 -54 -105.5t-140 -40.5t-140 38.5t-54 100.5q0 65 52.5 104.5t140.5 40.5z" />
    <glyph glyph-name="fraction" unicode="&#x2215;" horiz-adv-x="155" 
d="M370 1192l-525 -1054l-24 -48q-21 -40 -26 -54q-25 -60 -53 -60q-12 0 -22 9.5t-10 21.5q0 10 29 67l23 47l25 49l555 1114q39 79 48 92t25 13q11 0 20.5 -9.5t9.5 -21.5q0 -16 -28 -72z" />
    <glyph glyph-name="Euro" unicode="&#x20ac;" horiz-adv-x="1323" 
d="M743 29q180 0 302.5 94.5t209.5 257.5q19 37 41 37q33 0 33 -29q0 -21 -73 -135.5t-204 -203.5t-288 -89q-225 0 -399.5 153t-217.5 406h-57q-65 0 -65 35q0 39 67 39h47q-4 55 -4 88q0 53 6 102h-51q-65 0 -65 35q0 39 67 39h60q50 265 229 404t383 139q139 0 249 -59.5
t182.5 -153.5t72.5 -111q0 -12 -10.5 -20t-20.5 -8q-12 0 -23.5 12.5t-46.5 60.5q-83 115 -187.5 164t-191.5 49q-24 0 -45 -2l-4 -475h271q67 0 67 -39q0 -35 -65 -35h-273l-2 -102l2 -88h271q67 0 67 -39q0 -35 -65 -35h-273q3 -437 4 -491z" />
    <glyph glyph-name="guilsinglleft" unicode="&#x2039;" horiz-adv-x="398" 
d="M86 377v377l159 159q13 12 16 16q23 24 33 24q14 0 14 -36q0 -27 -10 -40q-4 -6 -16 -17q-11 -11 -16 -15l-132 -133l175 -163v-380z" />
    <glyph glyph-name="guilsinglright" unicode="&#x203a;" horiz-adv-x="398" 
d="M312 745v-378l-159 -159q-40 -39 -49 -39q-14 -1 -14 35q0 28 10 41q4 6 16 17q12 10 16 14l132 133l-175 164v380z" />
    <glyph glyph-name="fi" unicode="&#xf001;" horiz-adv-x="1586" 
d="M644 1033l-2 -300l-2 -372l4 -321v-40h-511v34l2 162l2 351l-4 457v29h-18l-81 -3q-41 0 -41 35q0 36 39 36l50 -4h58q14 84 35.5 131.5t66.5 91.5q125 124 357 124q114 0 201 -34t87 -78q0 -17 -13.5 -29.5t-31.5 -12.5q-20 0 -39 22q-24 30 -37 39t-31 9q-51 0 -72 -58
t-22 -204h93q9 0 26 1q19 1 32 1q41 0 41 -36t-44 -36q-21 0 -78 3q-32 2 -67 2zM1206 1442q264 0 264 -138q0 -67 -69.5 -104.5t-195.5 -37.5q-251 0 -251 142q0 136 252 138zM1465 1092v-29l-2 -156l-1 -242l-3 -368l3 -207l2 -90h-514l6 368l3 325l-4 285l-1 114h511z
" />
    <glyph glyph-name="fl" unicode="&#xf002;" horiz-adv-x="1576" 
d="M644 1033l-2 -300l-2 -372l4 -321v-40h-511v34l2 162l2 351l-4 457v29h-18l-81 -3q-41 0 -41 35q0 36 39 36l50 -4h58q14 84 35.5 131.5t66.5 91.5q125 124 357 124q114 0 201 -34t87 -78q0 -17 -13.5 -29.5t-31.5 -12.5q-20 0 -39 22q-24 30 -37 39t-31 9q-51 0 -72 -58
t-22 -204h93q9 0 26 1q19 1 32 1q41 0 41 -36t-44 -36q-21 0 -78 3q-32 2 -67 2zM1460 1365l1 -51l-2 -352l-1 -152l-1 -166l-1 -111l4 -494v-39h-510v47l2 159l1 288l2 377l-1 203l-3 223l1 68h508z" />
    <glyph glyph-name="daggerdbl" unicode="&#x2021;" 
d="M384 984l-150 -2h-74q-64 0 -64 36q0 39 62 39l72 -1l153 -2l-1 127l-2 184h565l1 -51l-2 -133l-2 -127l153 2l72 1q62 0 62 -39q0 -36 -64 -36h-74l-150 2l-1 -164v-183l1 -210h150l74 1q64 0 64 -36q0 -39 -62 -39l-72 2l-153 1l2 -263l2 -133l-1 -51h-565l3 447
l-76 -1h-77l-72 -2q-62 0 -62 39q0 36 64 36l74 -1h150l2 140v70l-1 183z" />
    <glyph glyph-name="periodcentered" unicode="&#x2219;" horiz-adv-x="1391" 
d="M696 782q133 0 214 -59t81 -158q0 -101 -82 -164.5t-213 -63.5q-165 0 -247 92q-48 54 -48 126q0 102 80 163.5t215 63.5z" />
    <glyph glyph-name="quotesinglbase" unicode="&#x201a;" horiz-adv-x="797" 
d="M651 97q-49 -64 -121 -96t-168 -32q-104 0 -180 47q-93 57 -93 163q0 84 60 145q94 96 248 96q142 0 228 -80q84 -78 84 -211q0 -85 -36 -157.5t-101 -115.5q-95 -65 -261 -65q-74 0 -74 30q0 25 37 25l32 -2h20q105 0 175 31q90 39 129 134q10 23 21 88z" />
    <glyph glyph-name="quotedblbase" unicode="&#x201e;" horiz-adv-x="1480" 
d="M651 97q-49 -64 -121 -96t-168 -32q-104 0 -180 47q-93 57 -93 163q0 84 60 145q94 96 248 96q142 0 228 -80q84 -78 84 -211q0 -85 -36 -157.5t-101 -115.5q-95 -65 -261 -65q-74 0 -74 30q0 25 37 25l32 -2h20q105 0 175 31q90 39 129 134q10 23 21 88zM1333 97
q-49 -64 -121 -96t-168 -32q-104 0 -180 47q-93 57 -93 163q0 84 60 145q94 96 248 96q142 0 228 -80q84 -78 84 -211q0 -85 -36 -157.5t-100 -115.5q-96 -65 -261 -65q-74 0 -74 30q0 25 37 25l32 -2h20q104 0 174 31q90 39 129 134q10 23 21 88z" />
    <glyph glyph-name="perthousand" unicode="&#x2030;" horiz-adv-x="2328" 
d="M384 1384q120 0 212 -80q118 -102 118 -294q0 -169 -100 -272q-95 -99 -232 -99q-146 0 -244 114q-90 106 -90 261q0 166 95 265q99 103 241 105zM367 1325v-628h16q106 0 177 63q95 85 95 256q0 139 -70 222q-74 88 -189 88q-9 0 -29 -1zM1083 1192l-525 -1054l-24 -48
q-21 -40 -26 -54q-25 -60 -53 -60q-12 0 -22 9.5t-10 21.5q0 10 29 67l23 47l25 49l555 1114q39 79 48 92t25 13q11 0 20.5 -9.5t9.5 -21.5q0 -15 -75 -166zM1199 724q140 0 237 -102q98 -102 98 -278q0 -180 -118 -284q-91 -79 -210 -79q-72 0 -140 31t-113 84
q-85 100 -85 259q0 166 102 269q97 98 229 100zM1187 666v-625q17 -1 26 -1q109 0 178 73q83 88 83 243q0 139 -71 221q-34 40 -87 65t-103 25q-8 0 -26 -1zM1952 724q141 0 238 -102q98 -102 98 -278q0 -180 -119 -284q-90 -79 -210 -79q-72 0 -139.5 31t-112.5 84
q-85 100 -85 259q0 166 102 269q97 98 228 100zM1920 666v-625q17 -1 26 -1q109 0 178 73q84 88 84 243q0 139 -71 221q-35 40 -87.5 65t-103.5 25q-8 0 -26 -1z" />
    <glyph glyph-name="Acircumflex" unicode="&#xc2;" horiz-adv-x="1599" 
d="M825 1447l800 -1447h-693l-95 183h-336l-296 1l-50 1l-66 -122q-29 -55 -40.5 -68.5t-28.5 -13.5q-34 0 -34 30q0 13 19.5 48.5t136.5 233.5l605 1019zM514 792l-175 -295l-140 -243l300 -4l301 3zM1227 1485h-375l-145 209l-138 -164q-48 -57 -73 -57q-27 0 -27 27
q0 11 32 51l19 21l157 182h343z" />
    <glyph glyph-name="Ecircumflex" unicode="&#xca;" horiz-adv-x="1371" 
d="M724 927q-2 -46 -2 -112v-60l7 -690l339 4l240 3q59 0 59 -36q0 -30 -30 -34q-7 -1 -83 -2h-1136l1 52l1 334l4 358l-8 621h1060q71 0 81 -3q23 -6 23 -34q0 -35 -44 -35h-7l-501 7l-4 -310l109 -1l350 6l77 1q42 0 55.5 -7t13.5 -28q0 -39 -66 -39l-79 2zM1099 1485
h-375l-145 209l-138 -164q-48 -57 -73 -57q-27 0 -27 27q0 11 32 51l19 21l157 182h343z" />
    <glyph glyph-name="Aacute" unicode="&#xc1;" horiz-adv-x="1599" 
d="M825 1447l800 -1447h-693l-95 183h-336l-296 1l-50 1l-66 -122q-29 -55 -40.5 -68.5t-28.5 -13.5q-34 0 -34 30q0 13 19.5 48.5t136.5 233.5l605 1019zM514 792l-175 -295l-140 -243l300 -4l301 3zM687 1476l98 274h352l-216 -274h-234z" />
    <glyph glyph-name="Edieresis" unicode="&#xcb;" horiz-adv-x="1371" 
d="M724 927q-2 -46 -2 -112v-60l7 -690l339 4l240 3q59 0 59 -36q0 -30 -30 -34q-7 -1 -83 -2h-1136l1 52l1 334l4 358l-8 621h1060q71 0 81 -3q23 -6 23 -34q0 -35 -44 -35h-7l-501 7l-4 -310l109 -1l350 6l77 1q42 0 55.5 -7t13.5 -28q0 -39 -66 -39l-79 2zM971 1767
q88 0 141 -37.5t53 -100.5q0 -65 -54 -105.5t-140 -40.5t-140 38.5t-54 100.5q0 65 52.5 104.5t141.5 40.5zM472 1767q89 0 142 -37.5t53 -100.5q0 -65 -54 -105.5t-140 -40.5t-140 38.5t-54 100.5q0 65 52.5 104.5t140.5 40.5z" />
    <glyph glyph-name="Egrave" unicode="&#xc8;" horiz-adv-x="1371" 
d="M724 927q-2 -46 -2 -112v-60l7 -690l339 4l240 3q59 0 59 -36q0 -30 -30 -34q-7 -1 -83 -2h-1136l1 52l1 334l4 358l-8 621h1060q71 0 81 -3q23 -6 23 -34q0 -35 -44 -35h-7l-501 7l-4 -310l109 -1l350 6l77 1q42 0 55.5 -7t13.5 -28q0 -39 -66 -39l-79 2zM883 1477h-234
l-216 274h352z" />
    <glyph glyph-name="Iacute" unicode="&#xcd;" horiz-adv-x="844" 
d="M728 1365v-70l-5 -548l4 -747h-611l7 817l-7 499l1 49h611zM286 1477l98 274h352l-216 -274h-234z" />
    <glyph glyph-name="Icircumflex" unicode="&#xce;" horiz-adv-x="844" 
d="M728 1365v-70l-5 -548l4 -747h-611l7 817l-7 499l1 49h611zM801 1485h-375l-145 209l-138 -164q-48 -57 -73 -57q-27 0 -27 27q0 11 32 51l19 21l157 182h343z" />
    <glyph glyph-name="Idieresis" unicode="&#xcf;" horiz-adv-x="844" 
d="M728 1365v-70l-5 -548l4 -747h-611l7 817l-7 499l1 49h611zM673 1767q88 0 141 -37.5t53 -100.5q0 -65 -54 -105.5t-140 -40.5t-140 38.5t-54 100.5q0 65 52.5 104.5t141.5 40.5zM174 1767q89 0 142 -37.5t53 -100.5q0 -65 -54 -105.5t-140 -40.5t-140 38.5t-54 100.5
q0 65 52.5 104.5t140.5 40.5z" />
    <glyph glyph-name="Igrave" unicode="&#xcc;" horiz-adv-x="844" 
d="M728 1365v-70l-5 -548l4 -747h-611l7 817l-7 499l1 49h611zM575 1476h-234l-216 274h352z" />
    <glyph glyph-name="Oacute" unicode="&#xd3;" horiz-adv-x="1553" 
d="M780 1406q158 0 305 -67q216 -99 330 -305q91 -165 91 -359q0 -156 -69 -302q-103 -218 -321 -331q-160 -83 -336 -83q-186 0 -352 94q-221 124 -315 348q-58 137 -58 283q0 183 91 349q112 204 327 305q143 67 307 68zM701 1339l-6 -651l5 -541l1 -122q34 -6 65 -6
q221 0 395 122q159 112 230 288q50 123 50 255q0 174 -84 324q-103 184 -290 271q-140 66 -295 66q-36 0 -71 -6zM607 1476l98 274h352l-216 -274h-234z" />
    <glyph glyph-name="Ocircumflex" unicode="&#xd4;" horiz-adv-x="1553" 
d="M780 1406q158 0 305 -67q216 -99 330 -305q91 -165 91 -359q0 -156 -69 -302q-103 -218 -321 -331q-160 -83 -336 -83q-186 0 -352 94q-221 124 -315 348q-58 137 -58 283q0 183 91 349q112 204 327 305q143 67 307 68zM701 1339l-6 -651l5 -541l1 -122q34 -6 65 -6
q221 0 395 122q159 112 230 288q50 123 50 255q0 174 -84 324q-103 184 -290 271q-140 66 -295 66q-36 0 -71 -6zM1169 1485h-375l-145 209l-138 -164q-48 -57 -73 -57q-27 0 -27 27q0 11 32 51l19 21l157 182h343z" />
    <glyph glyph-name="Ograve" unicode="&#xd2;" horiz-adv-x="1553" 
d="M780 1406q158 0 305 -67q216 -99 330 -305q91 -165 91 -359q0 -156 -69 -302q-103 -218 -321 -331q-160 -83 -336 -83q-186 0 -352 94q-221 124 -315 348q-58 137 -58 283q0 183 91 349q112 204 327 305q143 67 307 68zM701 1339l-6 -651l5 -541l1 -122q34 -6 65 -6
q221 0 395 122q159 112 230 288q50 123 50 255q0 174 -84 324q-103 184 -290 271q-140 66 -295 66q-36 0 -71 -6zM933 1476h-234l-216 274h352z" />
    <glyph glyph-name="Uacute" unicode="&#xda;" horiz-adv-x="1539" 
d="M728 1365l-5 -518l-2 -544l3 -277q51 -4 89 -4q351 0 470 163q61 84 80.5 238.5t19.5 561.5l-3 265l-4 82q0 52 43 52q38 0 38 -50q0 -29 -3 -79l-8 -399q-4 -252 -9 -342.5t-20 -169.5q-31 -163 -143 -260q-143 -125 -490 -125q-304 0 -459 82q-122 63 -173 213
q-23 69 -27 142t-5 445l-4 524h612zM683 1476l98 274h352l-216 -274h-234z" />
    <glyph glyph-name="Ucircumflex" unicode="&#xdb;" horiz-adv-x="1539" 
d="M728 1365l-5 -518l-2 -544l3 -277q51 -4 89 -4q351 0 470 163q61 84 80.5 238.5t19.5 561.5l-3 265l-4 82q0 52 43 52q38 0 38 -50q0 -29 -3 -79l-8 -399q-4 -252 -9 -342.5t-20 -169.5q-31 -163 -143 -260q-143 -125 -490 -125q-304 0 -459 82q-122 63 -173 213
q-23 69 -27 142t-5 445l-4 524h612zM1203 1485h-375l-145 209l-138 -164q-48 -57 -73 -57q-27 0 -27 27q0 11 32 51l19 21l157 182h343z" />
    <glyph glyph-name="Ugrave" unicode="&#xd9;" horiz-adv-x="1539" 
d="M728 1365l-5 -518l-2 -544l3 -277q51 -4 89 -4q351 0 470 163q61 84 80.5 238.5t19.5 561.5l-3 265l-4 82q0 52 43 52q38 0 38 -50q0 -29 -3 -79l-8 -399q-4 -252 -9 -342.5t-20 -169.5q-31 -163 -143 -260q-143 -125 -490 -125q-304 0 -459 82q-122 63 -173 213
q-23 69 -27 142t-5 445l-4 524h612zM977 1476h-234l-216 274h352z" />
    <glyph glyph-name="dotlessi" unicode="&#x131;" horiz-adv-x="747" 
d="M631 1092v-29l-2 -156l-2 -242l-3 -368l4 -207l2 -90h-514l5 368l3 325l-2 171l-3 190l1 38h511z" />
    <glyph glyph-name="circumflex" unicode="&#x2c6;" horiz-adv-x="1024" 
d="M891 1213h-375l-145 209l-138 -164q-48 -57 -73 -57q-27 0 -27 27q0 11 32 51l19 21l157 182h343z" />
    <glyph glyph-name="tilde" unicode="&#x2dc;" horiz-adv-x="1024" 
d="M369 1509l427 -101l84 75q22 20 34 20q11 0 21 -9.5t10 -20.5q0 -10 -23 -32l-252 -242l-436 102l-87 -78q-21 -19 -37 -19q-11 0 -20.5 9.5t-9.5 19.5q0 15 23 36z" />
    <glyph glyph-name="macron" unicode="&#x2c9;" horiz-adv-x="1024" 
d="M732 1297l-246 -2l-242 -5l-72 -2h-12q-56 0 -56 49q0 52 51 52l71 -1l240 -3l244 5l144 3h12q55 0 55 -52q0 -48 -61 -48l-76 3q-18 1 -52 1z" />
    <glyph glyph-name="breve" unicode="&#x2d8;" horiz-adv-x="1024" 
d="M779 1428l13 39q14 44 20.5 54t21.5 10q35 0 35 -31q0 -19 -18.5 -72t-38.5 -90q-78 -145 -300 -145q-121 0 -194.5 39.5t-115.5 127.5q-17 36 -31.5 81t-14.5 61q0 29 33 29q16 0 23 -10.5t21 -53.5l13 -39h533z" />
    <glyph glyph-name="dotaccent" unicode="&#x2d9;" horiz-adv-x="1024" 
d="M511 1495q89 0 142 -37.5t53 -100.5q0 -65 -54 -105.5t-140 -40.5t-140 38.5t-54 100.5q0 65 52.5 104.5t140.5 40.5z" />
    <glyph glyph-name="ring" unicode="&#x2da;" horiz-adv-x="1024" 
d="M512 1603q89 0 148 -59t59 -144t-61 -142t-151 -57q-89 0 -146 56t-57 144q0 87 58.5 144t149.5 58zM466 1276q19 -5 33.5 -7.5t24.5 -2.5q52 0 91.5 41t39.5 95q0 57 -40 97q-41 40 -91 40q-10 0 -24.5 -2.5t-33.5 -8.5v-252z" />
    <glyph glyph-name="cedilla" unicode="&#xb8;" horiz-adv-x="1024" 
d="M549 0l-67 -141q26 3 37 3q182 0 182 -152q0 -74 -56 -117t-151 -43q-82 0 -132 37q-40 30 -40 58q0 10 8.5 18.5t19.5 8.5q8 0 20 -9q39 -31 59 -40t46 -9q10 0 21 2.5t23 6.5v179q-22 5 -34 5q-16 0 -37 -7q-19 -6 -31 -6q-22 0 -22 22q0 8 25 62l58 122h71z" />
    <glyph glyph-name="hungarumlaut" unicode="&#x2dd;" horiz-adv-x="1024" 
d="M207 1204l123 274h287l-219 -274h-191zM567 1204l123 274h287l-219 -274h-191z" />
    <glyph glyph-name="ogonek" unicode="&#x2db;" horiz-adv-x="1024" 
d="M1103 0q-39 -12 -58.5 -24t-55.5 -45v-226q26 -5 42 -5q44 0 89 23q24 12 34 12q30 0 30 -31q0 -30 -50 -51.5t-116 -21.5q-107 0 -165.5 42.5t-58.5 118.5q0 141 187 208h122z" />
    <glyph glyph-name="caron" unicode="&#x2c7;" horiz-adv-x="1024" 
d="M133 1470h375l145 -209l139 163q47 58 72 58q27 0 27 -27q0 -11 -32 -51l-18 -21l-157 -182h-344z" />
    <glyph glyph-name="brokenbar" unicode="&#xa6;" horiz-adv-x="1024" 
d="M378 1365h270v-753h-270v753zM378 314h270v-655h-270v655z" />
    <glyph glyph-name="sfthyphen" unicode="&#xad;" horiz-adv-x="716" 
d="M501 527l-144 -1l-292 -3q-65 0 -65 36q0 39 63 39l71 -2l179 -4l260 6l78 1q65 0 65 -38q0 -37 -66 -37l-72 2z" />
    <glyph glyph-name="macron" unicode="&#xaf;" horiz-adv-x="1024" 
d="M-3 1757h1031v-200h-1031v200z" />
    <glyph glyph-name="twosuperior" unicode="&#xb2;" horiz-adv-x="898" 
d="M516 597l9 1q175 0 249 9q26 4 40 4q27 0 27 -27q0 -38 -68 -38h-742q170 180 363 442q167 225 167 278q0 33 -28 49.5t-85 16.5q-128 0 -222 -65q-41 -28 -65 -68t-24 -78q0 -41 43 -99q7 -9 7 -20t-9.5 -20t-22.5 -9q-28 0 -52.5 44.5t-24.5 96.5q0 59 34.5 114
t94.5 92q106 66 269 66q130 0 224 -42q65 -29 102.5 -83t37.5 -119q0 -88 -81 -213q-76 -119 -175 -246z" />
    <glyph glyph-name="threesuperior" unicode="&#xb3;" horiz-adv-x="898" 
d="M409 1332q-147 0 -224 -79q-29 -29 -49 -29q-31 0 -31 35q0 26 55 61q107 66 287 66q136 0 226 -47q105 -54 105 -162q0 -82 -68.5 -133t-193.5 -63q151 -16 214 -55q92 -57 92 -152q0 -113 -113.5 -182t-298.5 -69q-188 0 -300 69q-75 47 -75 90q0 30 34 30
q16 0 24.5 -7t24.5 -35q25 -41 101.5 -68t166.5 -27l23 1v380h-90q-34 0 -44.5 5t-10.5 22t10.5 22.5t45.5 5.5h89v321z" />
    <glyph glyph-name="onesuperior" unicode="&#xb9;" horiz-adv-x="898" 
d="M676 1380l-5 -343l5 -465v-26h-383v27l4 281l1 188l3 136q0 27 -4 52l-94 -27q-16 -5 -27 -5q-26 0 -26 27q0 18 11.5 24.5t62.5 18.5l220 53z" />
    <glyph glyph-name="onequarter" unicode="&#xbc;" horiz-adv-x="1876" 
d="M645 1380l-5 -343l5 -465v-26h-383v27l4 281l1 188l3 136q0 27 -4 52l-94 -27q-16 -5 -27 -5q-26 0 -26 27q0 18 11.5 24.5t62.5 18.5l60 14l100 24l60 15zM1231 1192l-525 -1054l-24 -48q-21 -40 -27 -54q-25 -60 -52 -60q-12 0 -22 9.5t-10 21.5q0 10 29 67l23 47
l24 49l555 1114q40 79 49 92t25 13q11 0 20.5 -9.5t9.5 -21.5q0 -16 -28 -72l-28 -54zM1740 163v-163h-373l1 89l2 65v7h-66l-149 -2h-37q-68 0 -68 33q0 17 29 46l53 52l609 603l-1 -60l-1 -198l-1 -226l1 -193l87 5l17 1q29 0 29 -28q0 -21 -10.5 -25.5t-60.5 -5.5h-61z
M1370 215v232l-234 -231q47 -2 101 -2z" />
    <glyph glyph-name="onehalf" unicode="&#xbd;" horiz-adv-x="1876" 
d="M645 1380l-5 -343l5 -465v-26h-383v27l4 281l1 188l3 136q0 27 -4 52l-94 -27q-16 -5 -27 -5q-26 0 -26 27q0 18 11.5 24.5t62.5 18.5l60 14l100 24l60 15zM1231 1192l-525 -1054l-24 -48q-21 -40 -27 -54q-25 -60 -52 -60q-12 0 -22 9.5t-10 21.5q0 10 29 67l23 47
l24 49l555 1114q40 79 49 92t25 13q11 0 20.5 -9.5t9.5 -21.5q0 -16 -28 -72l-28 -54zM1518 51l8 1q175 0 249 9q26 4 40 4q27 0 27 -27q0 -38 -68 -38h-742q169 178 364 442q167 225 167 278q0 33 -28 49.5t-85 16.5q-128 0 -222 -65q-89 -62 -89 -146q0 -41 42 -99
q7 -9 7 -20t-9.5 -20t-21.5 -9q-29 0 -53 44.5t-24 96.5q0 59 34.5 113.5t95.5 92.5q106 66 268 66q130 0 224 -42q65 -29 102.5 -83t37.5 -119q0 -87 -81 -213q-74 -115 -176 -246z" />
    <glyph glyph-name="threequarters" unicode="&#xbe;" horiz-adv-x="1876" 
d="M378 1332q-147 0 -224 -79q-29 -29 -49 -29q-31 0 -31 35q0 26 55 61q107 66 287 66q136 0 226 -47q105 -54 105 -162q0 -82 -68.5 -133t-193.5 -63q151 -16 214 -55q92 -57 92 -152q0 -113 -113.5 -182t-298.5 -69q-188 0 -300 69q-75 47 -75 89q0 31 34 31
q16 0 24.5 -7.5t24.5 -34.5q24 -40 101 -67.5t167 -27.5l23 1v380h-90q-34 0 -44.5 5t-10.5 21q0 18 10.5 23.5t45.5 5.5h89v321zM1230 1192l-524 -1054l-25 -48q-21 -40 -26 -54q-25 -60 -53 -60q-12 0 -22 9.5t-10 21.5q0 10 29 67l23 47l25 49l555 1114q39 79 48 92
t25 13q12 0 21 -9.5t9 -21.5q0 -16 -75 -166zM1740 163v-163h-374l1 89l2 65v7h-66l-149 -2h-37q-68 0 -68 33q0 17 29 46l53 52l610 603l-1 -60l-1 -198l-2 -226l2 -193l87 5l17 1q29 0 29 -28q0 -21 -10.5 -25.5t-60.5 -5.5h-61zM1369 215v232l-234 -231q47 -2 101 -2z
" />
    <glyph glyph-name="Eth" unicode="&#xd0;" horiz-adv-x="1566" 
d="M144 1365h525q207 0 310 -20q257 -49 415 -274q124 -177 124 -390q0 -217 -128 -396q-153 -214 -402 -266q-63 -13 -113 -16t-221 -3h-508l4 408l-2 342v110h-104q-42 0 -55 7t-13 30t13.5 29t64.5 6h92l-1 232zM754 1301v-151l-1 -218h199q60 0 74.5 -6t14.5 -31
q0 -24 -14 -29.5t-74 -6.5h-201l-2 -329l6 -466q134 1 192 10.5t134 42.5q179 77 282 248q88 147 88 317q0 187 -105 343q-187 277 -553 277z" />
    <glyph glyph-name="multiply" unicode="&#xd7;" 
d="M713 687l228 -227q63 -62 74 -75t11 -30q0 -31 -31 -31q-17 0 -33 13t-68 68l-232 230q-59 -63 -116 -115l-115 -115q-52 -55 -68 -68t-33 -13q-13 0 -22 9.5t-9 21.5q0 16 10.5 29.5t74.5 75.5l228 226l-282 279q-31 30 -31 51q0 32 31 32q17 0 33 -12.5t68 -68.5
l231 -230l117 115l115 115q53 56 68.5 68.5t32.5 12.5q31 0 31 -31q0 -17 -10.5 -30t-74.5 -75z" />
    <glyph glyph-name="Yacute" unicode="&#xdd;" horiz-adv-x="1501" 
d="M1096 844l318 465q32 51 44 63t31 12q17 0 28.5 -9t11.5 -22t-12 -31q-8 -13 -20 -28l-32 -43l-813 -1143l-33 -45q-43 -60 -54.5 -71t-31.5 -11q-32 0 -32 28q0 15 29 49l228 310l-28 38l-429.5 570t-318.5 389h725zM661 1476l98 274h352l-216 -274h-234z" />
    <glyph glyph-name="Thorn" unicode="&#xde;" horiz-adv-x="1560" 
d="M766 170v-28l1 -124v-18h-610l1 54l5 706l-4 331l-1 227l-1 47h609v-136q286 -9 448 -77q175 -73 265 -236q62 -113 62 -242q0 -112 -45 -211t-128 -169q-166 -141 -412 -141q-68 0 -190 17zM767 1163v-68l-4 -604l2 -253q77 -21 197 -21q243 0 397 160q115 119 115 296
q0 163 -105 294q-79 99 -215.5 148t-330.5 49z" />
    <glyph glyph-name="eth" unicode="&#xf0;" horiz-adv-x="1227" 
d="M843 1072l-186 226l-7 8l-193 -82q-32 -14 -46 -14q-31 0 -31 29q0 24 44 43l183 77l-43 51q-26 31 -26 51q0 10 9.5 18t20.5 8q14 0 49 -38l56 -65l202 83q30 12 42 12q13 0 22 -9t9 -21q0 -23 -46 -42l-189 -76l188 -230l64 -79q106 -130 139 -183q82 -137 82 -290
q0 -213 -136 -373q-88 -103 -215 -155q-104 -43 -217 -43q-189 0 -340 112q-118 87 -179 221q-51 115 -51 241q0 244 180 412q168 155 387 155q112 0 228 -47zM587 1054l-3 -1008q32 -2 43 -2q139 0 266 78q122 76 183 202q48 100 48 220q0 241 -179 391q-144 121 -312 121
q-14 0 -46 -2z" />
    <glyph glyph-name="yacute" unicode="&#xfd;" horiz-adv-x="1236" 
d="M877 594q195 299 285 454q32 53 40 62t23 9q20 0 36 -15t16 -34q0 -15 -17 -36q-144 -196 -365 -532l-176 -269q-91 -138 -150 -199q-44 -43 -104.5 -70t-116.5 -27q-55 0 -90.5 21.5t-35.5 54.5q0 21 16 36t39 15q17 0 66 -23q32 -15 55 -15q45 0 85.5 27.5t88.5 90.5
l-118 185q-381 592 -509 763h636q60 -131 138 -262t158 -236zM502 1204l98 274h352l-216 -274h-234z" />
    <glyph glyph-name="thorn" unicode="&#xfe;" horiz-adv-x="1494" 
d="M116 1365h511l-3 -404q101 86 185 122t185 36q207 0 336 -154q116 -138 116 -351q0 -227 -133 -373q-123 -135 -307 -135q-96 0 -192 40.5t-192 120.5l1 -36l1 -131l2 -109l1 -37h-511l1 285l2 271l-3 803v52zM624 871v-522q73 -68 131 -102.5t101 -34.5q40 0 47 39
q2 13 3 135v489q0 87 -3 104q-7 42 -42 42q-45 0 -109 -40.5t-128 -109.5z" />
    <glyph glyph-name="Scaron" unicode="&#x160;" horiz-adv-x="1223" 
d="M103 232q18 0 42 -27q75 -82 183.5 -131.5t214.5 -49.5q117 0 117 71q0 45 -41 101.5t-196 223.5q-195 211 -260 313q-86 135 -86 257q0 184 164 301q161 115 397 115q165 0 303 -67q52 -26 89.5 -60t37.5 -57q0 -11 -10.5 -20.5t-21.5 -9.5q-17 0 -50 31
q-54 51 -142 84.5t-169 33.5q-50 0 -81.5 -21.5t-31.5 -55.5q0 -41 39 -100t132 -157q294 -313 360 -422q69 -115 69 -222q0 -91 -49 -172t-136 -133q-166 -99 -405 -99q-220 0 -387 114q-117 80 -117 125q0 13 10.5 23.5t24.5 10.5zM211 1744h375l145 -209l139 163
q47 58 72 58q27 0 27 -27q0 -11 -32 -51l-18 -21l-157 -182h-344z" />
    <glyph glyph-name="scaron" unicode="&#x161;" horiz-adv-x="985" 
d="M98 185q20 0 51 -30q50 -47 142 -80.5t172 -33.5q37 0 55.5 12.5t18.5 36.5t-25.5 57.5t-113.5 128.5q-215 230 -278.5 323.5t-63.5 179.5q0 75 43.5 143.5t121.5 116.5q129 80 296 80q123 0 260 -52q107 -41 107 -89q0 -15 -12.5 -27t-28.5 -12q-19 0 -71 37
q-106 76 -231 76q-44 0 -66.5 -14t-22.5 -43q0 -34 41.5 -86t168.5 -176q124 -121 157.5 -158.5t64.5 -86.5q53 -84 53 -182q0 -154 -149 -249q-122 -79 -300 -79q-198 0 -351 88q-45 27 -61.5 44t-16.5 37q0 37 39 38zM107 1470h375l145 -209l139 163q47 58 72 58
q27 0 27 -27q0 -11 -32 -51l-18 -21l-157 -182h-344z" />
    <glyph glyph-name="currency" unicode="&#xa4;" horiz-adv-x="1365" 
d="M159 233l179 184q-112 135 -112 297q0 158 112 294l-186 183l46 46l183 -182q138 115 301 115q165 0 300 -115l185 182l46 -46l-184 -183q111 -137 111 -296q0 -161 -111 -295l185 -184l-46 -46l-185 184q-135 -111 -298 -111q-159 0 -298 111l-183 -184zM648 325l36 -1
q157 0 272 115q113 113 113 275t-113 276q-113 116 -272 116q-10 0 -36 -2v-779z" />
    </font>
</defs>
</svg>
